<svg width="30" height="29" viewBox="0 0 30 29" fill="none" xmlns="http://www.w3.org/2000/svg">
<path fill-rule="evenodd" clip-rule="evenodd" d="M27.9691 12.4183L27.2315 15.171C26.3706 18.3843 25.94 19.9908 24.9641 21.0328C24.1935 21.8555 23.1962 22.4313 22.0985 22.6872C21.9613 22.7193 21.8221 22.7439 21.6793 22.7615C20.3754 22.9223 18.7846 22.496 15.8884 21.72C12.6751 20.859 11.0685 20.4285 10.0265 19.4526C9.20379 18.6821 8.62803 17.6848 8.37206 16.5869C8.04788 15.1965 8.47836 13.59 9.33934 10.3768L10.0769 7.62416C10.2007 7.16217 10.3157 6.73309 10.4246 6.33442C11.073 3.96053 11.5087 2.65451 12.3443 1.76238C13.1149 0.939631 14.1121 0.363868 15.21 0.107904C16.6002 -0.216282 18.2069 0.2142 21.4201 1.07518C24.6332 1.93616 26.2399 2.36664 27.2819 3.34256C28.1047 4.11315 28.6804 5.1104 28.9363 6.20821C29.2605 7.59856 28.8301 9.20516 27.9691 12.4183ZM14.0383 11.1224C14.1911 10.5523 14.7771 10.214 15.3472 10.3667L22.2288 12.2107C22.7989 12.3635 23.1371 12.9494 22.9844 13.5195C22.8316 14.0896 22.2457 14.4278 21.6756 14.2751L14.7939 12.4312C14.2238 12.2784 13.8856 11.6925 14.0383 11.1224ZM12.9315 15.2508C13.0842 14.6807 13.6701 14.3425 14.2402 14.4952L18.3692 15.6016C18.9393 15.7544 19.2776 16.3403 19.1248 16.9104C18.9721 17.4805 18.3862 17.8189 17.8161 17.6661L13.6871 16.5597C13.117 16.407 12.7786 15.8209 12.9315 15.2508Z" fill="#95A3D3"/>
<path opacity="0.5" d="M20.5394 23.2675C20.2423 24.177 19.7199 24.9998 19.0178 25.6575C17.9758 26.6334 16.3691 27.0639 13.156 27.9249C9.94273 28.7859 8.33613 29.2164 6.94577 28.8921C5.84797 28.6362 4.85072 28.0604 4.08013 27.2377C3.10421 26.1957 2.67373 24.5892 1.81275 21.3759L1.07518 18.6234C0.2142 15.4101 -0.216283 13.8035 0.107904 12.4132C0.363868 11.3154 0.939631 10.3181 1.76238 9.54751C2.80436 8.57159 4.41096 8.14111 7.62416 7.28013C8.23205 7.11725 8.78247 6.96976 9.28476 6.83988C9.28472 6.84004 9.28481 6.83974 9.28476 6.83988C9.17587 7.23855 9.0609 7.66806 8.93711 8.13006L8.19954 10.8827C7.33856 14.0958 6.90808 15.7025 7.23226 17.0929C7.48823 18.1906 8.06399 19.1879 8.88674 19.9585C9.92872 20.9344 11.5353 21.365 14.7486 22.2259C17.6446 23.0019 19.2356 23.4282 20.5394 23.2675Z" fill="#95A3D3"/>
</svg>
