<svg width="22" height="26" viewBox="0 0 22 26" fill="none" xmlns="http://www.w3.org/2000/svg">
<path d="M10.5426 0H1.21387V8.04226H10.5426V0Z" fill="#9EBDEF"/>
<path d="M17.9125 23.6689C17.7902 23.6689 17.6745 23.7174 17.5865 23.8054C17.4112 23.9808 17.4113 24.2773 17.5866 24.4529C17.6732 24.5378 17.7894 24.5854 17.9125 24.5854C18.035 24.5854 18.1506 24.538 18.2374 24.452C18.3237 24.3665 18.3712 24.2517 18.3712 24.1288C18.3712 24.0061 18.3236 23.8915 18.2374 23.8062C18.1492 23.7172 18.0343 23.6689 17.9125 23.6689Z" fill="#9EBDEF"/>
<path d="M9.25109 12.3047C8.40553 12.3047 7.61091 12.6332 7.01335 13.2295C5.78197 14.4634 5.78197 16.4716 7.01359 17.7058C7.28886 17.9806 7.60663 18.1977 7.95154 18.3528L10.1214 14.594C10.1768 14.4982 10.2995 14.4653 10.3953 14.5205C10.4912 14.5759 10.524 14.6986 10.4688 14.7945L8.3321 18.4958C8.62626 18.5844 8.9351 18.6303 9.25109 18.6303C10.0966 18.6303 10.8906 18.3019 11.4871 17.7056C12.0859 17.1067 12.4157 16.3119 12.4157 15.4675C12.4157 14.6229 12.0859 13.8281 11.4871 13.2293C10.8906 12.6331 10.0966 12.3047 9.25109 12.3047ZM10.1983 13.4232L8.74702 15.9357C8.70985 16 8.64253 16.036 8.57319 16.036C8.53913 16.036 8.50471 16.0274 8.4731 16.0092C8.37716 15.9538 8.34433 15.8311 8.39972 15.7352L9.85104 13.2227C9.90643 13.1268 10.0291 13.0941 10.125 13.1493C10.2208 13.2047 10.2537 13.3273 10.1983 13.4232Z" fill="#9EBDEF"/>
<path d="M15.7291 19.8764C15.6528 19.8009 15.5482 19.7588 15.4357 19.7588C15.3229 19.7588 15.2184 19.8009 15.1413 19.8772L15.0472 19.9716L13.6604 21.3606C13.5011 21.5229 13.5019 21.7842 13.6629 21.9453L17.552 25.8343C17.6304 25.9126 17.7346 25.9558 17.8456 25.9558C17.9565 25.9558 18.0608 25.9126 18.139 25.8343L19.6155 24.353C19.694 24.2745 19.7371 24.1702 19.7371 24.0592C19.7371 23.9481 19.694 23.8439 19.6157 23.7656L15.7291 19.8764ZM18.52 24.7371C18.3572 24.8981 18.1416 24.9865 17.9127 24.9865C17.6841 24.9865 17.4682 24.8982 17.3046 24.7379C16.9687 24.4014 16.9687 23.8566 17.3031 23.522C17.4669 23.3582 17.6834 23.268 17.9128 23.268C18.1425 23.268 18.3585 23.3584 18.5212 23.5226C18.6828 23.6825 18.7724 23.8983 18.7725 24.1288C18.7726 24.3596 18.6829 24.5756 18.52 24.7371Z" fill="#9EBDEF"/>
<path d="M12.2177 0.430401H21.7998C21.9106 0.430401 22.0004 0.340642 22.0004 0.229849C22.0004 0.119117 21.9105 0.0292969 21.7998 0.0292969H12.2177C12.1069 0.0292969 12.0171 0.119117 12.0171 0.229849C12.0171 0.340642 12.107 0.430401 12.2177 0.430401Z" fill="#9EBDEF"/>
<path d="M21.7998 1.36621H12.2177C12.1069 1.36621 12.0171 1.45603 12.0171 1.56676C12.0171 1.67756 12.107 1.76732 12.2177 1.76732H21.7998C21.9106 1.76732 22.0004 1.67756 22.0004 1.56676C22.0004 1.45603 21.9106 1.36621 21.7998 1.36621Z" fill="#9EBDEF"/>
<path d="M21.7998 2.69727H12.2177C12.1069 2.69727 12.0171 2.78709 12.0171 2.89782C12.0171 3.00861 12.107 3.09837 12.2177 3.09837H21.7998C21.9106 3.09837 22.0004 3.00861 22.0004 2.89782C22.0004 2.78709 21.9106 2.69727 21.7998 2.69727Z" fill="#9EBDEF"/>
<path d="M21.7998 4.0332H12.2177C12.1069 4.0332 12.0171 4.12302 12.0171 4.23376C12.0171 4.34455 12.107 4.43431 12.2177 4.43431H21.7998C21.9106 4.43431 22.0004 4.34455 22.0004 4.23376C22.0004 4.12302 21.9106 4.0332 21.7998 4.0332Z" fill="#9EBDEF"/>
<path d="M21.7998 5.36914H12.2177C12.1069 5.36914 12.0171 5.4589 12.0171 5.56969C12.0171 5.68042 12.107 5.77024 12.2177 5.77024H21.7998C21.9106 5.77024 22.0004 5.68042 22.0004 5.56969C22.0004 5.4589 21.9106 5.36914 21.7998 5.36914Z" fill="#9EBDEF"/>
<path d="M21.7998 6.70605H12.2177C12.1069 6.70605 12.0171 6.79588 12.0171 6.90661C12.0171 7.0174 12.107 7.10716 12.2177 7.10716H21.7998C21.9106 7.10716 22.0004 7.0174 22.0004 6.90661C22.0004 6.79588 21.9106 6.70605 21.7998 6.70605Z" fill="#9EBDEF"/>
<path d="M21.7998 8.04199H12.2177C12.1069 8.04199 12.0171 8.13181 12.0171 8.24254C12.0171 8.35334 12.107 8.4431 12.2177 8.4431H21.7998C21.9106 8.4431 22.0004 8.35334 22.0004 8.24254C22.0004 8.13175 21.9106 8.04199 21.7998 8.04199Z" fill="#9EBDEF"/>
<path d="M21.7996 9.37891H1.03112C0.920387 9.37891 0.830566 9.46867 0.830566 9.57946C0.830566 9.69019 0.920387 9.78001 1.03112 9.78001H21.7996C21.9104 9.78001 22.0002 9.69019 22.0002 9.57946C22.0002 9.4686 21.9104 9.37891 21.7996 9.37891Z" fill="#9EBDEF"/>
<path d="M22.0002 10.9156C22.0002 10.8048 21.9104 10.715 21.7996 10.715H11.3441C11.3422 10.715 11.3404 10.7155 11.3384 10.7156C10.7019 10.446 10.0117 10.3037 9.29943 10.3037C8.58735 10.3037 7.89752 10.4459 7.26144 10.7155C7.26004 10.7154 7.25881 10.715 7.25741 10.715H1.03112C0.920387 10.715 0.830566 10.8048 0.830566 10.9156C0.830566 11.0263 0.920387 11.1161 1.03112 11.1161H6.50099C6.18341 11.3186 5.88479 11.5558 5.61196 11.8282C5.53944 11.9007 5.47017 11.9755 5.40254 12.0515H1.03112C0.920387 12.0515 0.830566 12.1413 0.830566 12.2521C0.830566 12.3628 0.920387 12.4526 1.03112 12.4526H5.07903C4.86509 12.7462 4.68429 13.0595 4.53748 13.3876H1.03112C0.920387 13.3876 0.830566 13.4774 0.830566 13.5882C0.830566 13.6989 0.920387 13.7887 1.03112 13.7887H4.37636C4.2704 14.091 4.19269 14.404 4.14402 14.7241H1.03112C0.920387 14.7241 0.830566 14.8139 0.830566 14.9246C0.830566 15.0354 0.920387 15.1252 1.03112 15.1252H4.09969C4.09003 15.2561 4.08361 15.3878 4.08367 15.5204C4.08379 15.702 4.09345 15.8821 4.11192 16.0603H1.03112C0.920387 16.0603 0.830566 16.1501 0.830566 16.2608C0.830566 16.3716 0.920387 16.4613 1.03112 16.4613H4.16939C4.22809 16.7822 4.31657 17.0951 4.43329 17.3967H1.03112C0.920387 17.3967 0.830566 17.4865 0.830566 17.5973C0.830566 17.7081 0.920387 17.7978 1.03112 17.7978H4.60945C4.77032 18.1276 4.9664 18.4409 5.19649 18.733H1.03112C0.920387 18.733 0.830566 18.8228 0.830566 18.9334C0.830566 19.0442 0.920387 19.134 1.03112 19.134H5.54703C5.56879 19.1564 5.58964 19.1795 5.61184 19.2016C6.59656 20.1875 7.90608 20.7303 9.29943 20.7303C10.6924 20.7303 12.0022 20.1878 12.9878 19.2026C13.0528 19.1376 13.1159 19.0712 13.1769 19.0036C13.1839 18.9959 13.1904 18.9879 13.1972 18.9802C13.2507 18.9204 13.3028 18.8598 13.353 18.7981C13.3638 18.785 13.3737 18.7715 13.3842 18.7584C13.4304 18.7005 13.4758 18.6422 13.5192 18.5829C13.527 18.5722 13.5343 18.5612 13.5421 18.5505C13.5892 18.4849 13.6351 18.4187 13.6786 18.3516C13.6787 18.3514 13.6788 18.3512 13.6789 18.3511C13.7952 18.1728 13.8993 17.9879 13.9922 17.7977H21.7996C21.9104 17.7977 22.0002 17.7079 22.0002 17.5972C22.0002 17.4864 21.9104 17.3967 21.7996 17.3967H14.1678C14.2846 17.095 14.3736 16.7823 14.4322 16.4613H21.7996C21.9104 16.4613 22.0002 16.3715 22.0002 16.2607C22.0002 16.15 21.9104 16.0602 21.7996 16.0602H14.4891C14.5074 15.882 14.5173 15.7019 14.5174 15.5203C14.5175 15.3877 14.5111 15.2561 14.5014 15.1251H21.7996C21.9104 15.1251 22.0002 15.0353 22.0002 14.9245C22.0002 14.8138 21.9104 14.7241 21.7996 14.7241H14.457C14.4083 14.404 14.3306 14.091 14.2246 13.7886H21.7996C21.9104 13.7886 22.0002 13.6989 22.0002 13.5881C22.0002 13.4774 21.9104 13.3876 21.7996 13.3876H14.0635C13.9167 13.0595 13.7358 12.7462 13.5218 12.4526H21.7997C21.9105 12.4526 22.0003 12.3627 22.0003 12.252C22.0003 12.1412 21.9104 12.0514 21.7997 12.0514H13.1982C13.1305 11.9754 13.0612 11.9006 12.9885 11.828C12.7155 11.5556 12.4167 11.3185 12.0988 11.1161H21.7996C21.9104 11.1161 22.0002 11.0263 22.0002 10.9156ZM11.9663 18.1849C11.2409 18.9101 10.2753 19.3095 9.24746 19.3095C8.78539 19.3095 8.33605 19.2281 7.91501 19.0734C7.88419 19.0709 7.85331 19.062 7.82464 19.0455C7.81712 19.0413 7.81082 19.0358 7.80409 19.0307C7.33176 18.8402 6.89806 18.5554 6.52704 18.185C5.02944 16.6844 5.02944 14.2432 6.52674 12.7429C7.25355 12.0174 8.21969 11.6181 9.24752 11.6181C10.2754 11.6181 11.241 12.0175 11.9663 12.7427C12.6942 13.4706 13.0951 14.437 13.0951 15.4638C13.0951 16.4907 12.6941 17.457 11.9663 18.1849Z" fill="#9EBDEF"/>
<path d="M21.7996 18.733H14.2071C14.0963 18.733 14.0066 18.8228 14.0066 18.9335C14.0066 18.9868 14.0278 19.0348 14.0615 19.0707C14.0611 19.0704 14.0607 19.0699 14.0603 19.0695L13.5554 18.5654C13.5515 18.5711 13.5469 18.5766 13.5428 18.5821C13.5163 18.6186 13.4891 18.6546 13.4615 18.6904C13.4392 18.7196 13.4165 18.7486 13.3935 18.7774C13.369 18.8079 13.3444 18.8382 13.3192 18.8683C13.2901 18.9029 13.2603 18.9369 13.2302 18.9709C13.2113 18.9924 13.1931 19.0142 13.1738 19.0354C13.1582 19.0615 13.1374 19.0841 13.1121 19.1007C13.0756 19.1393 13.0394 19.1779 13.0018 19.2154L13.0017 19.2155C13.0017 19.2155 13.0016 19.2156 13.0016 19.2156C12.803 19.4182 12.5887 19.6022 12.3516 19.773L13.5156 20.937L14.6904 19.7604L14.7213 19.7295L14.0709 19.0801C14.0704 19.0797 14.0701 19.0792 14.0697 19.0789C14.1056 19.1129 14.1537 19.1339 14.207 19.1339H21.7995C21.9103 19.1339 22.0001 19.0441 22.0001 18.9333C22.0002 18.8228 21.9104 18.733 21.7996 18.733Z" fill="#9EBDEF"/>
</svg>
