<svg width="14" height="15" viewBox="0 0 14 15" fill="none" xmlns="http://www.w3.org/2000/svg">
<path d="M1 12.9167V3.38333C1 2.54909 1 2.13196 1.16236 1.81333C1.30516 1.53304 1.53304 1.30516 1.81333 1.16236C2.13196 1 2.54909 1 3.38333 1H10.5333C11.3676 1 11.7847 1 12.1034 1.16236C12.3836 1.30516 12.6115 1.53304 12.7543 1.81333C12.9167 2.13196 12.9167 2.54909 12.9167 3.38333V11.4271H2.48958C1.66691 11.4271 1 12.094 1 12.9167ZM1 12.9167C1 13.7394 1.66691 14.4063 2.48958 14.4063H12.9167M4.72396 3.97917H9.19271M4.72396 6.95833H9.19271M12.1719 11.4271V14.4063" stroke="#9AB7E1" stroke-width="0.89375" stroke-linecap="round" stroke-linejoin="round"/>
</svg>
