<svg width="15" height="15" viewBox="0 0 15 15" fill="none" xmlns="http://www.w3.org/2000/svg">
<circle cx="7.5" cy="7.5" r="7" stroke="#9EBDEF"/>
<path d="M6.479 9.069H4.533L4.211 10H3.182L4.939 5.107H6.08L7.837 10H6.801L6.479 9.069ZM6.213 8.285L5.506 6.241L4.799 8.285H6.213ZM8.24174 8.047C8.24174 7.655 8.31874 7.30733 8.47274 7.004C8.63141 6.70067 8.84374 6.46733 9.10974 6.304C9.38041 6.14067 9.68141 6.059 10.0127 6.059C10.3021 6.059 10.5541 6.11733 10.7687 6.234C10.9881 6.35067 11.1631 6.49767 11.2937 6.675V6.122H12.2807V10H11.2937V9.433C11.1677 9.615 10.9927 9.76667 10.7687 9.888C10.5494 10.0047 10.2951 10.063 10.0057 10.063C9.67908 10.063 9.38041 9.979 9.10974 9.811C8.84374 9.643 8.63141 9.40733 8.47274 9.104C8.31874 8.796 8.24174 8.44367 8.24174 8.047ZM11.2937 8.061C11.2937 7.823 11.2471 7.62 11.1537 7.452C11.0604 7.27933 10.9344 7.14867 10.7757 7.06C10.6171 6.96667 10.4467 6.92 10.2647 6.92C10.0827 6.92 9.91474 6.96433 9.76074 7.053C9.60674 7.14167 9.48074 7.27233 9.38274 7.445C9.28941 7.613 9.24274 7.81367 9.24274 8.047C9.24274 8.28033 9.28941 8.48567 9.38274 8.663C9.48074 8.83567 9.60674 8.96867 9.76074 9.062C9.91941 9.15533 10.0874 9.202 10.2647 9.202C10.4467 9.202 10.6171 9.15767 10.7757 9.069C10.9344 8.97567 11.0604 8.845 11.1537 8.677C11.2471 8.50433 11.2937 8.299 11.2937 8.061Z" fill="#9AB7E1"/>
</svg>
