<svg width="183" height="84" viewBox="0 0 183 84" fill="none" xmlns="http://www.w3.org/2000/svg">
<path fill-rule="evenodd" clip-rule="evenodd" d="M43.1356 37.6572C43.1356 46.2437 36.1748 53.2044 27.5883 53.2044C19.0018 53.2044 12.041 46.2437 12.041 37.6572C12.041 29.0706 19.0018 22.1099 27.5883 22.1099C36.1748 22.1099 43.1356 29.0706 43.1356 37.6572ZM27.5883 51.3659C35.1594 51.3659 41.297 45.2283 41.297 37.6572C41.297 30.086 35.1594 23.9484 27.5883 23.9484C20.0172 23.9484 13.8796 30.086 13.8796 37.6572C13.8796 45.2283 20.0172 51.3659 27.5883 51.3659Z" fill="url(#paint0_linear_1725_804)"/>
<path fill-rule="evenodd" clip-rule="evenodd" d="M37.9088 38.0248C37.9088 43.7242 33.2885 48.3444 27.5891 48.3444C21.8898 48.3444 17.2695 43.7242 17.2695 38.0248C17.2695 32.3254 21.8898 27.7052 27.5891 27.7052C33.2885 27.7052 37.9088 32.3254 37.9088 38.0248ZM27.5891 46.8736C32.4762 46.8736 36.4379 42.9119 36.4379 38.0248C36.4379 33.1378 32.4762 29.176 27.5891 29.176C22.7021 29.176 18.7404 33.1378 18.7404 38.0248C18.7404 42.9119 22.7021 46.8736 27.5891 46.8736Z" fill="url(#paint1_linear_1725_804)"/>
<path fill-rule="evenodd" clip-rule="evenodd" d="M33.1626 38.025C33.1626 41.1031 30.6673 43.5984 27.5891 43.5984C24.511 43.5984 22.0156 41.1031 22.0156 38.025C22.0156 34.9468 24.511 32.4515 27.5891 32.4515C30.6673 32.4515 33.1626 34.9468 33.1626 38.025ZM27.5891 42.1276C29.8549 42.1276 31.6917 40.2908 31.6917 38.025C31.6917 35.7591 29.8549 33.9223 27.5891 33.9223C25.3233 33.9223 23.4865 35.7591 23.4865 38.025C23.4865 40.2908 25.3233 42.1276 27.5891 42.1276Z" fill="url(#paint2_linear_1725_804)"/>
<path fill-rule="evenodd" clip-rule="evenodd" d="M27.5896 59.3913C15.5862 59.3913 5.85547 49.6606 5.85547 37.6572C5.85547 25.6538 15.5862 15.9231 27.5896 15.9231C39.593 15.9231 49.3237 25.6538 49.3237 37.6572C49.3237 44.722 45.9539 50.9971 40.735 54.9662L39.3198 53.2707C44.0552 49.7074 47.1174 44.0399 47.1174 37.6572C47.1174 26.8723 38.3745 18.1294 27.5896 18.1294C16.8046 18.1294 8.06174 26.8723 8.06174 37.6572C8.06174 48.4421 16.8046 57.185 27.5896 57.185C28.1704 57.185 28.7452 57.1597 29.3132 57.11C29.2847 57.2324 29.255 57.3626 29.2271 57.49C29.1554 57.816 29.2211 58.12 29.2762 58.3756C29.301 58.4906 29.3237 58.5957 29.3309 58.6887C29.3415 58.8264 29.5346 59.0664 29.7459 59.2855C29.0362 59.3555 28.3168 59.3913 27.5896 59.3913Z" fill="url(#paint3_linear_1725_804)"/>
<path d="M7.35007 60.8724C6.14846 60.3065 5.79054 56.2649 6.28806 55.1836C6.78557 54.1024 5.04441 53.6665 4.31622 53.3631C3.58803 53.0597 4.51851 52.2759 5.07477 51.922C4.41281 51.3989 3.11799 50.5048 2.97473 50.21C2.83147 49.9153 3.62083 49.4174 4.20196 47.6986C4.78309 45.9797 4.02295 45.7372 4.05926 45.7009C4.09556 45.6646 0.796875 44.9926 0.796875 44.6639C0.796875 44.3352 3.4889 40.1455 3.4889 40.1455C3.4889 40.1455 6.33206 32.0556 6.98304 30.6597C7.63402 29.2639 9.01669 26.7293 9.01669 26.7293L8.53978 32.4201C8.2193 33.7652 7.91766 36.6292 8.30223 37.5581C8.78295 38.7192 9.87307 40.6802 11.1579 41.4807C12.4427 42.2813 16.3978 42.9528 20.3707 45.4825C24.3437 48.0122 27.5949 51.8421 29.0136 54.0645C30.4324 56.2868 30.2486 59.4531 30.2936 59.3903C30.3386 59.3275 30.6289 59.6185 31.9268 58.8913C33.2247 58.1641 34.1253 57.3125 36.0574 55.7884C38.15 54.1375 38.3592 54.0645 39.327 53.262C39.6284 53.0121 40.8487 54.8508 40.8598 54.8682C40.8709 54.8855 36.8953 58.0586 36.8953 58.0586C36.8953 58.0586 32.6887 61.001 30.6063 63.9698C28.5238 66.9387 29.6674 75.6414 29.8114 76.2819C29.9555 76.9224 28.6814 77.7006 27.6519 77.7006C26.6225 77.7006 26.2161 76.2819 26.2161 76.2819C25.8741 72.2346 25.8903 69.0491 26.3446 68.4593L22.6725 71.1673L22.429 65.8314C21.8406 64.3843 19.9977 61.3666 17.3336 60.8724C14.0035 60.2545 11.6492 60.7153 10.6333 60.8724C8.88544 61.1426 8.55169 61.4382 7.35007 60.8724Z" fill="url(#paint4_linear_1725_804)"/>
<path d="M4.17704 10.8541C3.55502 10.1811 3.59638 9.13126 4.26942 8.50924C4.94245 7.88723 5.9923 7.92859 6.61431 8.60163L13.4491 15.997C14.0711 16.67 14.0297 17.7199 13.3567 18.3419C12.6836 18.9639 11.6338 18.9226 11.0118 18.2495L4.17704 10.8541Z" fill="url(#paint5_linear_1725_804)"/>
<path d="M21.495 2.37831C21.2842 1.48643 21.8363 0.592529 22.7282 0.381715C23.62 0.1709 24.5139 0.723007 24.7247 1.61488L27.0412 11.4149C27.252 12.3067 26.6999 13.2006 25.808 13.4114C24.9162 13.6223 24.0223 13.0702 23.8114 12.1783L21.495 2.37831Z" fill="url(#paint6_linear_1725_804)"/>
<path d="M41.9398 3.66356C42.3981 2.8699 43.4129 2.59797 44.2066 3.05619C45.0003 3.51441 45.2722 4.52927 44.814 5.32294L39.779 14.0438C39.3207 14.8375 38.3059 15.1094 37.5122 14.6512C36.7185 14.193 36.4466 13.1781 36.9048 12.3845L41.9398 3.66356Z" fill="url(#paint7_linear_1725_804)"/>
<path d="M54.2559 13.4471C54.8869 12.7824 55.9372 12.7552 56.6019 13.3861C57.2665 14.0171 57.2938 15.0674 56.6628 15.7321L49.7296 23.0352C49.0986 23.6998 48.0483 23.7271 47.3836 23.0961C46.719 22.4651 46.6917 21.4148 47.3227 20.7502L54.2559 13.4471Z" fill="url(#paint8_linear_1725_804)"/>
<path d="M30.1202 82.0855C30.1202 83.1348 29.2696 83.9855 28.2203 83.9855C27.171 83.9855 26.3203 83.1348 26.3203 82.0855C26.3203 81.0362 27.171 80.1855 28.2203 80.1855C29.2696 80.1855 30.1202 81.0362 30.1202 82.0855Z" fill="url(#paint9_linear_1725_804)"/>
<path d="M74.5128 51.578C78.189 51.578 80.8529 48.9141 80.8529 44.7318C80.8529 40.5494 78.189 37.9388 74.5128 37.9388C70.8366 37.9388 68.1727 40.5494 68.1727 44.7318C68.1727 48.9141 70.8366 51.578 74.5128 51.578ZM74.5128 54.2153C69.2916 54.2153 65.056 50.2993 65.056 44.7318C65.056 39.1908 69.2916 35.2749 74.5128 35.2749C79.7874 35.2749 83.9697 39.1908 83.9697 44.7318C83.9697 48.2215 82.3447 51.0452 79.814 52.6702L84.2627 57.3853H80.4001L77.1501 53.869C76.3243 54.1087 75.4452 54.2153 74.5128 54.2153ZM100.329 54.0288H97.2921V52.2706C96.3331 53.5227 94.6815 54.2419 92.95 54.2419C89.5135 54.2419 86.9029 52.0842 86.9029 47.9817V39.3507H89.9131V47.5289C89.9131 50.2194 91.3783 51.6047 93.5893 51.6047C95.827 51.6047 97.2921 50.2194 97.2921 47.5289V39.3507H100.329V54.0288ZM110.516 41.6683C108.465 41.6683 106.813 43.0535 106.494 45.3711H114.619C114.565 43.1068 112.78 41.6683 110.516 41.6683ZM117.389 49.66C116.563 52.2174 114.246 54.2686 110.649 54.2686C106.44 54.2686 103.324 51.285 103.324 46.6764C103.324 42.0679 106.307 39.1109 110.649 39.1109C114.832 39.1109 117.789 42.0146 117.789 46.3301C117.789 46.8363 117.762 47.3158 117.682 47.8219H106.467C106.68 50.2461 108.412 51.7112 110.649 51.7112C112.514 51.7112 113.553 50.8055 114.112 49.66H117.389ZM126.105 54.2686C122.589 54.2686 120.111 52.1907 119.978 49.5268H123.121C123.228 50.7256 124.373 51.7112 126.052 51.7112C127.81 51.7112 128.742 50.9653 128.742 49.953C128.742 47.076 120.218 48.7276 120.218 43.3465C120.218 41.0023 122.402 39.1109 125.865 39.1109C129.195 39.1109 131.38 40.8957 131.539 43.826H128.503C128.396 42.5474 127.41 41.6683 125.759 41.6683C124.134 41.6683 123.281 42.3343 123.281 43.3199C123.281 46.2768 131.566 44.6252 131.726 49.9264C131.726 52.4038 129.568 54.2686 126.105 54.2686ZM135.487 35.7011H138.55V39.3507H142.12V41.8281H138.55V49.953C138.55 51.0452 138.976 51.4981 140.255 51.4981H142.12V54.0288H139.722C137.112 54.0288 135.487 52.9366 135.487 49.953V41.8281H133.755V39.3507H135.487V35.7011ZM147.956 41.5084C148.888 40.283 150.673 39.1109 153.07 39.1109C156.933 39.1109 159.97 42.0945 159.97 46.6231C159.97 51.1518 156.933 54.2686 153.07 54.2686C150.646 54.2686 148.915 53.0432 147.956 51.8977V61.0082H144.919V39.3507H147.956V41.5084ZM156.88 46.6231C156.88 43.4531 154.695 41.7482 152.404 41.7482C150.14 41.7482 147.956 43.533 147.956 46.6764C147.956 49.8465 150.14 51.6313 152.404 51.6313C154.695 51.6313 156.88 49.7932 156.88 46.6231ZM162.973 39.3507H166.01V54.0288H162.973V39.3507ZM164.518 37.406C163.426 37.406 162.573 36.5536 162.573 35.4614C162.573 34.3692 163.426 33.5167 164.518 33.5167C165.584 33.5167 166.436 34.3692 166.436 35.4614C166.436 36.5536 165.584 37.406 164.518 37.406ZM177.589 54.0288L174.419 49.0473L171.436 54.0288H168.265L173.007 46.8096L168.265 39.3507H171.702L174.872 44.3322L177.856 39.3507H181.026L176.284 46.5965L181.026 54.0288H177.589Z" fill="white"/>
<defs>
<linearGradient id="paint0_linear_1725_804" x1="27.5883" y1="22.1099" x2="27.5883" y2="53.2044" gradientUnits="userSpaceOnUse">
<stop stop-color="#64E1C9"/>
<stop offset="1" stop-color="#57D8F3"/>
</linearGradient>
<linearGradient id="paint1_linear_1725_804" x1="27.5891" y1="27.7052" x2="27.5891" y2="48.3444" gradientUnits="userSpaceOnUse">
<stop stop-color="#64E1C9"/>
<stop offset="1" stop-color="#57D8F3"/>
</linearGradient>
<linearGradient id="paint2_linear_1725_804" x1="27.5891" y1="32.4515" x2="27.5891" y2="43.5984" gradientUnits="userSpaceOnUse">
<stop stop-color="#64E1C9"/>
<stop offset="1" stop-color="#57D8F3"/>
</linearGradient>
<linearGradient id="paint3_linear_1725_804" x1="27.5896" y1="15.9231" x2="27.5896" y2="59.3913" gradientUnits="userSpaceOnUse">
<stop stop-color="#64E1C9"/>
<stop offset="1" stop-color="#57D8F3"/>
</linearGradient>
<linearGradient id="paint4_linear_1725_804" x1="20.8284" y1="26.7293" x2="20.8284" y2="77.7006" gradientUnits="userSpaceOnUse">
<stop stop-color="#64E1C9"/>
<stop offset="1" stop-color="#57D8F3"/>
</linearGradient>
<linearGradient id="paint5_linear_1725_804" x1="4.26942" y1="8.50924" x2="13.3567" y2="18.3419" gradientUnits="userSpaceOnUse">
<stop stop-color="#64E1C9"/>
<stop offset="1" stop-color="#57D8F3"/>
</linearGradient>
<linearGradient id="paint6_linear_1725_804" x1="22.7282" y1="0.381715" x2="25.808" y2="13.4114" gradientUnits="userSpaceOnUse">
<stop stop-color="#64E1C9"/>
<stop offset="1" stop-color="#57D8F3"/>
</linearGradient>
<linearGradient id="paint7_linear_1725_804" x1="44.2066" y1="3.05619" x2="37.5122" y2="14.6512" gradientUnits="userSpaceOnUse">
<stop stop-color="#64E1C9"/>
<stop offset="1" stop-color="#57D8F3"/>
</linearGradient>
<linearGradient id="paint8_linear_1725_804" x1="56.6019" y1="13.3861" x2="47.3836" y2="23.0961" gradientUnits="userSpaceOnUse">
<stop stop-color="#64E1C9"/>
<stop offset="1" stop-color="#57D8F3"/>
</linearGradient>
<linearGradient id="paint9_linear_1725_804" x1="28.2203" y1="80.1855" x2="28.2203" y2="83.9855" gradientUnits="userSpaceOnUse">
<stop stop-color="#64E1C9"/>
<stop offset="1" stop-color="#57D8F3"/>
</linearGradient>
</defs>
</svg>
