<svg width="33" height="30" viewBox="0 0 33 30" fill="none" xmlns="http://www.w3.org/2000/svg">
<path d="M13.435 0.456001V11.208C13.435 16.1573 12.3683 20.2533 10.235 23.496C8.01633 26.7387 4.81633 28.872 0.634998 29.896V25.416C3.195 24.7333 5.02967 23.4533 6.139 21.576C7.24833 19.784 7.88833 17.4373 8.059 14.536H3.195V0.456001H13.435ZM32.635 0.456001V11.208C32.635 16.1573 31.5683 20.2533 29.435 23.496C27.2163 26.7387 24.0163 28.872 19.835 29.896V25.416C22.395 24.7333 24.2297 23.4533 25.339 21.576C26.4483 19.784 27.0883 17.4373 27.259 14.536H22.395V0.456001H32.635Z" fill="#0F1825"/>
</svg>
