<svg width="33" height="30" viewBox="0 0 33 30" fill="none" xmlns="http://www.w3.org/2000/svg">
<path d="M19.565 29.544V18.792C19.565 13.8427 20.6317 9.74666 22.765 6.504C24.9837 3.26133 28.1837 1.12799 32.365 0.103996V4.58399C29.805 5.26666 27.9703 6.54666 26.861 8.424C25.7517 10.216 25.1117 12.5627 24.941 15.464H29.805V29.544H19.565ZM0.365001 29.544V18.792C0.365001 13.8427 1.43167 9.74666 3.565 6.504C5.78367 3.26133 8.98367 1.12799 13.165 0.103996V4.58399C10.605 5.26666 8.77033 6.54666 7.661 8.424C6.55167 10.216 5.91167 12.5627 5.741 15.464H10.605V29.544H0.365001Z" fill="#0F1825"/>
</svg>
