<svg width="121" height="25" viewBox="0 0 121 25" fill="none" xmlns="http://www.w3.org/2000/svg">
<rect x="0.136719" y="0.840019" width="115.797" height="23.6542" rx="11.8271" fill="#229B6E"/>
<path d="M17.3982 14.675C16.3782 14.675 15.5682 13.865 15.5682 12.845C15.5682 11.81 16.3782 11 17.3982 11C18.4332 11 19.2582 11.81 19.2582 12.845C19.2582 13.865 18.4332 14.675 17.3982 14.675ZM36.8391 17.84L35.9991 15.515H31.4391L30.5991 17.84H29.1591L32.9391 7.44502H34.5141L38.2791 17.84H36.8391ZM35.6091 14.405L33.7191 9.12502L31.8291 14.405H35.6091ZM40.4215 9.62002L42.9865 16.58L45.5365 9.62002H46.9915L43.7665 17.84H42.1765L38.9515 9.62002H40.4215ZM47.8247 13.7C47.8247 11.135 49.5197 9.48502 51.7247 9.48502C53.2547 9.48502 54.3047 10.265 54.7847 11.12V9.62002H56.1647V17.84H54.7847V16.31C54.2897 17.195 53.2247 17.975 51.7097 17.975C49.5197 17.975 47.8247 16.25 47.8247 13.7ZM54.7847 13.715C54.7847 11.81 53.4947 10.67 51.9947 10.67C50.4947 10.67 49.2197 11.765 49.2197 13.7C49.2197 15.635 50.4947 16.775 51.9947 16.775C53.4947 16.775 54.7847 15.65 54.7847 13.715ZM58.4714 9.62002H59.8364V17.84H58.4714V9.62002ZM59.1764 8.28502C58.6514 8.28502 58.2464 7.88002 58.2464 7.35502C58.2464 6.83002 58.6514 6.42502 59.1764 6.42502C59.6714 6.42502 60.0764 6.83002 60.0764 7.35502C60.0764 7.88002 59.6714 8.28502 59.1764 8.28502ZM62.1628 6.74002H63.5278V17.84H62.1628V6.74002ZM65.3442 13.7C65.3442 11.135 67.0392 9.48502 69.2442 9.48502C70.7742 9.48502 71.8242 10.265 72.3042 11.12V9.62002H73.6842V17.84H72.3042V16.31C71.8092 17.195 70.7442 17.975 69.2292 17.975C67.0392 17.975 65.3442 16.25 65.3442 13.7ZM72.3042 13.715C72.3042 11.81 71.0142 10.67 69.5142 10.67C68.0142 10.67 66.7392 11.765 66.7392 13.7C66.7392 15.635 68.0142 16.775 69.5142 16.775C71.0142 16.775 72.3042 15.65 72.3042 13.715ZM77.3559 11.15C77.8809 10.235 78.9759 9.48502 80.4309 9.48502C82.6509 9.48502 84.3309 11.135 84.3309 13.7C84.3309 16.25 82.6359 17.975 80.4309 17.975C78.9309 17.975 77.8659 17.225 77.3559 16.325V17.84H75.9909V6.74002H77.3559V11.15ZM82.9359 13.7C82.9359 11.765 81.6609 10.67 80.1459 10.67C78.6609 10.67 77.3559 11.81 77.3559 13.715C77.3559 15.65 78.6609 16.775 80.1459 16.775C81.6609 16.775 82.9359 15.635 82.9359 13.7ZM86.1277 6.74002H87.4927V17.84H86.1277V6.74002ZM93.3141 10.64C91.9791 10.64 90.8691 11.525 90.7191 13.13H95.9091C95.9241 11.525 94.7241 10.64 93.3141 10.64ZM97.1541 15.305C96.7341 16.805 95.4141 17.975 93.3741 17.975C91.0341 17.975 89.3091 16.325 89.3091 13.715C89.3091 11.12 90.9741 9.48502 93.3741 9.48502C95.7591 9.48502 97.3191 11.165 97.3191 13.415C97.3191 13.715 97.3041 13.955 97.2741 14.24H90.7041C90.8091 15.905 91.9791 16.82 93.3741 16.82C94.6041 16.82 95.3841 16.19 95.6841 15.305H97.1541Z" fill="#6AEBBB"/>
</svg>
