<svg width="16" height="18" viewBox="0 0 16 18" fill="none" xmlns="http://www.w3.org/2000/svg">
<path d="M2.66667 18H13.3333C14.0406 18 14.7189 17.7155 15.219 17.2092C15.719 16.7028 16 16.0161 16 15.3V4.5C16 4.02261 15.8127 3.56477 15.4793 3.22721C15.1459 2.88964 14.6937 2.7 14.2222 2.7H12.4444V0.9C12.4444 0.661305 12.3508 0.432387 12.1841 0.263604C12.0174 0.0948211 11.7913 0 11.5556 0C11.3198 0 11.0937 0.0948211 10.927 0.263604C10.7603 0.432387 10.6667 0.661305 10.6667 0.9V2.7H5.33333V0.9C5.33333 0.661305 5.23968 0.432387 5.07298 0.263604C4.90628 0.0948211 4.68019 0 4.44444 0C4.2087 0 3.9826 0.0948211 3.81591 0.263604C3.64921 0.432387 3.55556 0.661305 3.55556 0.9V2.7H1.77778C1.30628 2.7 0.854097 2.88964 0.520699 3.22721C0.187301 3.56477 0 4.02261 0 4.5V15.3C0 16.0161 0.280952 16.7028 0.781049 17.2092C1.28115 17.7155 1.95942 18 2.66667 18ZM1.77778 9.45C1.77778 9.33065 1.8246 9.21619 1.90795 9.1318C1.9913 9.04741 2.10435 9 2.22222 9H13.7778C13.8957 9 14.0087 9.04741 14.092 9.1318C14.1754 9.21619 14.2222 9.33065 14.2222 9.45V15.3C14.2222 15.5387 14.1286 15.7676 13.9619 15.9364C13.7952 16.1052 13.5691 16.2 13.3333 16.2H2.66667C2.43092 16.2 2.20483 16.1052 2.03813 15.9364C1.87143 15.7676 1.77778 15.5387 1.77778 15.3V9.45Z" fill="#9EBDEF"/>
</svg>
