<svg width="17" height="17" viewBox="0 0 17 17" fill="none" xmlns="http://www.w3.org/2000/svg">
<path d="M12.125 2.47603V2.97603H12.625H14.1766C14.6612 2.97603 15.126 3.16855 15.4687 3.51125C15.8114 3.85394 16.0039 4.31873 16.0039 4.80338V14.1128C16.0039 14.5974 15.8114 15.0622 15.4687 15.4049C15.126 15.7476 14.6612 15.9401 14.1766 15.9401H3.31563C2.83098 15.9401 2.36619 15.7476 2.0235 15.4049C1.6808 15.0622 1.48828 14.5974 1.48828 14.1128V4.80338C1.48828 4.31873 1.6808 3.85394 2.0235 3.51125C2.36619 3.16855 2.83098 2.97603 3.31563 2.97603H4.86719H5.36719V2.47603V1.70025C5.36719 1.62711 5.39624 1.55696 5.44796 1.50524C5.49968 1.45352 5.56983 1.42447 5.64297 1.42447C5.71611 1.42447 5.78626 1.45352 5.83798 1.50524C5.88969 1.55696 5.91875 1.62711 5.91875 1.70025V2.47603V2.97603H6.41875H11.0734H11.5734V2.47603V1.70025C11.5734 1.62711 11.6025 1.55696 11.6542 1.50524C11.7059 1.45352 11.7761 1.42447 11.8492 1.42447C11.9224 1.42447 11.9925 1.45352 12.0442 1.50524C12.0959 1.55696 12.125 1.62711 12.125 1.70025V2.47603ZM2.53984 8.18228H2.03984V8.68228V14.1128C2.03984 14.4511 2.17426 14.7756 2.41351 15.0149C2.65277 15.2541 2.97727 15.3885 3.31563 15.3885H14.1766C14.5149 15.3885 14.8394 15.2541 15.0787 15.0149C15.3179 14.7756 15.4523 14.4511 15.4523 14.1128V8.68228V8.18228H14.9523H2.53984ZM14.9523 7.63072H15.4523V7.13072V4.80338C15.4523 4.46502 15.3179 4.14052 15.0787 3.90126C14.8394 3.66201 14.5149 3.52759 14.1766 3.52759H12.625H12.125V4.02759V4.80338C12.125 4.87652 12.0959 4.94666 12.0442 4.99838C11.9925 5.0501 11.9224 5.07916 11.8492 5.07916C11.7761 5.07916 11.7059 5.0501 11.6542 4.99838C11.6025 4.94666 11.5734 4.87652 11.5734 4.80338V4.02759V3.52759H11.0734H6.41875H5.91875V4.02759V4.80338C5.91875 4.87652 5.8897 4.94666 5.83798 4.99838C5.78626 5.0501 5.71611 5.07916 5.64297 5.07916C5.56983 5.07916 5.49968 5.0501 5.44796 4.99838C5.39624 4.94666 5.36719 4.87652 5.36719 4.80338V4.02759V3.52759H4.86719H3.31563C2.97727 3.52759 2.65277 3.66201 2.41351 3.90126C2.17426 4.14052 2.03984 4.46502 2.03984 4.80338V7.13072V7.63072H2.53984H14.9523Z" stroke="#7B8EAC"/>
</svg>
