<svg width="22" height="27" viewBox="0 0 22 27" fill="none" xmlns="http://www.w3.org/2000/svg">
<path d="M15.958 2.5458L9.51172 1.37286L8.92856 4.57778L15.3748 5.75071L15.958 2.5458Z" fill="#9EBDEF"/>
<path d="M17.1112 23.5245C16.866 24.872 15.5812 25.7293 14.2701 25.4908L3.01652 23.4431C1.669 23.1979 0.811638 21.9131 1.0502 20.602C1.0502 20.602 1.35191 17.4964 1.77915 16.5959C2.99792 14.0334 9.14384 7.96527 9.14384 7.96527L9.73362 4.72394L14.541 5.59867L13.9578 8.80359C13.9578 8.80359 17.5723 16.6477 17.8103 19.4753C17.9228 20.5116 17.1112 23.5245 17.1112 23.5245Z" fill="#9EBDEF"/>
<path d="M18.2239 19.4754C18.0024 16.7637 14.8249 9.82689 14.3714 8.80375L14.8684 6.07229L15.269 6.14519C15.4875 6.18495 15.7028 6.03598 15.7425 5.81747L16.3257 2.61255C16.3654 2.39404 16.2165 2.17881 15.998 2.13904L9.58814 0.972733C9.36962 0.932972 9.15439 1.08194 9.11463 1.30045L8.53148 4.50536C8.49172 4.72388 8.64068 4.93911 8.8592 4.97887L9.25981 5.05177L8.76943 7.74681C7.94821 8.53801 2.56058 13.954 1.39811 16.4139C0.921207 17.3806 0.665881 20.2313 0.649287 20.5293C0.364336 22.0953 1.41371 23.5655 2.94332 23.8438L14.1969 25.8915C15.7266 26.1698 17.2265 25.1635 17.5115 23.5975C17.6142 23.2399 18.3363 20.5118 18.2239 19.4754ZM9.84297 1.84686L15.4516 2.86738L15.0142 5.27106L14.6136 5.19817L9.80621 4.32343L9.4056 4.25054L9.84297 1.84686ZM16.7169 23.4152C16.5115 24.5442 15.4353 25.2891 14.3427 25.0903L3.08911 23.0426C1.99653 22.8438 1.25171 21.7676 1.45714 20.6386C1.53672 19.7877 1.80853 17.4668 2.15958 16.7782C3.32205 14.3183 9.41167 8.3528 9.46134 8.28658C9.51102 8.22037 9.56069 8.15416 9.57394 8.08132L10.0975 5.20418L14.1036 5.93313L13.5933 8.73743C13.5801 8.81027 13.6032 8.88973 13.6264 8.9692C13.6496 9.04866 17.2475 16.7769 17.469 19.4886C17.5053 20.3229 16.9421 22.5909 16.7169 23.4152Z" fill="#0F1825"/>
</svg>
