<svg width="90" height="24" viewBox="0 0 90 24" fill="none" xmlns="http://www.w3.org/2000/svg">
<rect x="0.136719" y="0.168213" width="88.8828" height="23.6542" rx="11.8271" fill="#868686"/>
<path d="M13.0311 14.3303C12.0111 14.3303 11.2011 13.5203 11.2011 12.5003C11.2011 11.4653 12.0111 10.6553 13.0311 10.6553C14.0661 10.6553 14.8911 11.4653 14.8911 12.5003C14.8911 13.5203 14.0661 14.3303 13.0311 14.3303ZM31.0769 8.1503H26.8169V11.6453H30.6269V12.7703H26.8169V16.3703H31.0769V17.4953H25.4519V7.0253H31.0769V8.1503ZM39.1573 12.8453C39.1573 11.1653 38.2423 10.3103 36.8623 10.3103C35.4673 10.3103 34.5073 11.1803 34.5073 12.9503V17.4953H33.1423V9.2753H34.5073V10.4453C35.0473 9.5903 36.0373 9.1253 37.1473 9.1253C39.0523 9.1253 40.5073 10.2953 40.5073 12.6503V17.4953H39.1573V12.8453ZM42.227 13.3553C42.227 10.7903 43.922 9.1403 46.142 9.1403C47.432 9.1403 48.617 9.8003 49.187 10.7453V6.3953H50.567V17.4953H49.187V15.9503C48.692 16.8653 47.627 17.6303 46.127 17.6303C43.922 17.6303 42.227 15.9053 42.227 13.3553ZM49.187 13.3703C49.187 11.4653 47.897 10.3253 46.397 10.3253C44.897 10.3253 43.622 11.4203 43.622 13.3553C43.622 15.2903 44.897 16.4303 46.397 16.4303C47.897 16.4303 49.187 15.3053 49.187 13.3703ZM56.3688 10.2953C55.0338 10.2953 53.9237 11.1803 53.7738 12.7853H58.9638C58.9788 11.1803 57.7788 10.2953 56.3688 10.2953ZM60.2088 14.9603C59.7888 16.4603 58.4688 17.6303 56.4288 17.6303C54.0888 17.6303 52.3638 15.9803 52.3638 13.3703C52.3638 10.7753 54.0288 9.1403 56.4288 9.1403C58.8138 9.1403 60.3738 10.8203 60.3738 13.0703C60.3738 13.3703 60.3588 13.6103 60.3288 13.8953H53.7588C53.8638 15.5603 55.0338 16.4753 56.4288 16.4753C57.6588 16.4753 58.4388 15.8453 58.7388 14.9603H60.2088ZM61.6655 13.3553C61.6655 10.7903 63.3605 9.1403 65.5805 9.1403C66.8705 9.1403 68.0555 9.8003 68.6255 10.7453V6.3953H70.0055V17.4953H68.6255V15.9503C68.1305 16.8653 67.0655 17.6303 65.5655 17.6303C63.3605 17.6303 61.6655 15.9053 61.6655 13.3553ZM68.6255 13.3703C68.6255 11.4653 67.3355 10.3253 65.8355 10.3253C64.3355 10.3253 63.0605 11.4203 63.0605 13.3553C63.0605 15.2903 64.3355 16.4303 65.8355 16.4303C67.3355 16.4303 68.6255 15.3053 68.6255 13.3703Z" fill="#DCDCDC"/>
</svg>
