<svg width="26" height="26" viewBox="0 0 26 26" fill="none" xmlns="http://www.w3.org/2000/svg">
<g clip-path="url(#clip0_1743_1765)">
<path d="M13 0C5.83192 0 0 5.83167 0 13C0 20.1683 5.83192 26 13 26C20.1681 26 26 20.1683 26 13C26 5.83167 20.1681 0 13 0ZM5.93323 8.47727C5.93323 8.00881 6.31307 7.62927 6.78123 7.62927H8.75992V5.65058C8.75992 5.18213 9.13976 4.80259 9.60791 4.80259C10.0761 4.80259 10.4559 5.18218 10.4559 5.65058V7.62927H12.4346C12.9028 7.62927 13.2826 8.00886 13.2826 8.47727C13.2826 8.94573 12.9028 9.32527 12.4346 9.32527H10.4559V11.304C10.4559 11.7724 10.0761 12.152 9.60791 12.152C9.13976 12.152 8.75992 11.7724 8.75992 11.304V9.32527H6.78123C6.31307 9.32527 5.93323 8.94573 5.93323 8.47727ZM8.80247 18.3967C8.63682 18.5623 8.41984 18.6451 8.20295 18.6451C7.98601 18.6451 7.76897 18.5623 7.60343 18.3967C7.27218 18.0657 7.27218 17.5285 7.60343 17.1975L17.1976 7.60332C17.5288 7.27208 18.0654 7.27208 18.3967 7.60332C18.7279 7.93427 18.7279 8.47148 18.3967 8.80247L8.80247 18.3967ZM19.7841 18.3707H14.1307C13.6625 18.3707 13.2827 17.9911 13.2827 17.5227C13.2827 17.0543 13.6625 16.6747 14.1307 16.6747H19.7841C20.2523 16.6747 20.6321 17.0543 20.6321 17.5227C20.6321 17.9911 20.2522 18.3707 19.7841 18.3707Z" fill="#9EBDEF"/>
</g>
<defs>
<clipPath id="clip0_1743_1765">
<rect width="26" height="26" fill="white"/>
</clipPath>
</defs>
</svg>
