<svg width="30" height="26" viewBox="0 0 30 26" fill="none" xmlns="http://www.w3.org/2000/svg">
<path d="M14.7149 7.14502C17.43 3.58915 19.8802 1.94805 21.0292 1.94805C21.1872 1.94805 21.3183 1.9778 21.4197 2.03743C22.0337 2.39217 22.1499 3.95404 21.7387 6.01678C22.3944 6.14202 23.0234 6.28503 23.6225 6.44603C24.2664 3.33704 23.8371 1.18493 22.3944 0.350308C20.9279 -0.496192 18.8772 0.198307 16.4627 2.3593C15.0767 3.59953 13.6231 5.29045 12.2718 7.21018C10.924 7.28814 9.59197 7.43542 8.32902 7.64992C7.41644 4.58223 7.48218 2.47336 8.23872 2.03731C8.3401 1.97769 8.47122 1.94793 8.62922 1.94793C9.46984 1.94793 10.8498 2.78255 12.3223 4.18354C12.7396 3.66792 13.16 3.17605 13.5802 2.71405C11.0318 0.308675 8.79321 -0.531943 7.26709 0.350308C5.8006 1.19392 5.37723 3.31617 6.04198 6.49066C6.14589 6.98668 6.27678 7.50415 6.43132 8.03708C2.72471 8.93201 0 10.4854 0 12.637C0 14.4105 1.87187 15.9396 5.26998 16.9412L5.4131 16.983L5.45485 16.8429C5.60985 16.3331 5.78572 15.8145 5.97647 15.2989L6.0301 15.1499L5.8781 15.1051C3.52635 14.4166 1.94949 13.424 1.94949 12.6371C1.94949 11.7467 3.81075 10.6081 7.03356 9.86443C7.47422 11.0673 8.01568 12.3156 8.63579 13.5588C7.70395 15.6071 7.00542 17.6243 6.63822 19.3797C5.97347 22.5512 6.39672 24.6736 7.86333 25.5171C8.26271 25.7496 8.71283 25.8658 9.2017 25.8658C10.4208 25.8658 11.9082 25.1296 13.5387 23.7286C13.0946 23.2755 12.6593 22.7986 12.2361 22.3008C11.0229 23.3262 9.93195 23.9223 9.22546 23.9223C9.07046 23.9223 8.93933 23.8925 8.83496 23.8328C7.88778 23.2849 8.02029 20.1205 9.80406 15.7318C12.6379 20.6236 17.1687 25.8657 20.4569 25.8657C20.9458 25.8657 21.3958 25.7494 21.7953 25.5169H21.7983C24.8297 23.7702 22.9578 16.983 19.8935 11.2749C19.1663 11.1586 18.3704 11.0633 17.5029 10.9946L17.6013 11.1615C21.4435 17.8146 22.0754 23.1085 20.8235 23.8327C20.7192 23.8923 20.588 23.9222 20.433 23.9222C18.9188 23.9222 15.1303 21.0636 11.461 14.7086C11.2286 14.3059 11.0084 13.9084 10.7992 13.5164C11.1732 12.7551 11.591 11.9686 12.0571 11.1615C12.4791 10.4306 12.9025 9.74807 13.3241 9.10869C13.7188 9.09705 14.1202 9.0899 14.5311 9.0899C22.2125 9.0899 27.1158 11.1914 27.1158 12.637C27.1158 13.3792 25.7089 14.3032 23.5717 14.9859C23.8072 15.5999 24.0218 16.211 24.2095 16.813C27.3423 15.8115 29.0623 14.339 29.0623 12.637C29.0624 9.10004 21.7044 7.17812 14.7149 7.14502ZM10.3701 10.1868C10.1492 10.5697 9.93518 10.956 9.72817 11.3442C9.43916 10.7064 9.18106 10.0886 8.95606 9.497C9.57825 9.40047 10.2361 9.31859 10.9275 9.25401C10.7381 9.56204 10.5515 9.8725 10.3701 10.1868ZM12.6609 12.9732C12.6609 14.1531 13.6209 15.1131 14.8008 15.1131C15.9807 15.1131 16.9407 14.1531 16.9407 12.9732C16.9407 11.7933 15.9807 10.8333 14.8008 10.8333C13.6209 10.8332 12.6609 11.7932 12.6609 12.9732Z" fill="#9EBDEF"/>
</svg>
