<svg width="17" height="17" viewBox="0 0 17 17" fill="none" xmlns="http://www.w3.org/2000/svg">
<circle cx="8.50968" cy="8.12067" r="7.63287" stroke="#7B8EAC" stroke-width="0.925482"/>
<path d="M8.49095 3.72772C10.1075 3.72772 11.218 4.70256 11.218 6.26971C11.218 8.07132 9.97172 8.8117 8.24416 8.8117L8.20714 9.98398H7.2323L7.18294 8.0343H7.54079C8.94753 8.0343 10.1445 7.76282 10.1445 6.26971C10.1445 5.28253 9.50281 4.66554 8.50329 4.66554C7.49143 4.66554 6.8621 5.24551 6.8621 6.20801H5.80089C5.78855 4.7149 6.87444 3.72772 8.49095 3.72772ZM7.71355 12.5136C7.28166 12.5136 6.94848 12.1805 6.94848 11.7486C6.94848 11.3167 7.28166 10.9835 7.71355 10.9835C8.12076 10.9835 8.45393 11.3167 8.45393 11.7486C8.45393 12.1805 8.12076 12.5136 7.71355 12.5136Z" fill="#7B8EAC"/>
</svg>
