<svg width="21" height="25" viewBox="0 0 21 25" fill="none" xmlns="http://www.w3.org/2000/svg">
<path d="M17.5705 12.5736C18.1038 12.1114 18.5888 11.6497 19.0161 11.1954C21.2367 8.83449 21.1818 7.43639 20.7447 6.67925C20.3075 5.92206 19.124 5.17546 15.9693 5.91819C15.3623 6.06108 14.7199 6.2503 14.053 6.48105C13.9194 5.78805 13.7621 5.13719 13.5823 4.54002C12.648 1.43644 11.4097 0.784931 10.5355 0.784931C9.66126 0.784931 8.42295 1.43644 7.48866 4.54007C7.30888 5.13724 7.15157 5.78815 7.01799 6.4811C6.35105 6.25034 5.70871 6.06108 5.10164 5.91823C1.94676 5.17555 0.763334 5.9222 0.326141 6.67929C-0.111005 7.43639 -0.165896 8.83454 2.05474 11.1955C2.48203 11.6498 2.96702 12.1114 3.50037 12.5736C2.96702 13.0358 2.48203 13.4974 2.05474 13.9517C-0.165942 16.3127 -0.111005 17.7108 0.326141 18.4679C0.635869 19.0043 1.31989 19.5354 2.81456 19.5354C3.42954 19.5354 4.1819 19.4455 5.10155 19.229C5.70857 19.0861 6.35091 18.8969 7.01789 18.6661C7.15153 19.3591 7.30879 20.01 7.48856 20.6071C8.4229 23.7107 9.66117 24.3622 10.5354 24.3622C11.4097 24.3622 12.6479 23.7107 13.5822 20.6071C13.762 20.0099 13.9193 19.359 14.0529 18.666C14.7198 18.8968 15.3622 19.086 15.9692 19.2289C16.889 19.4455 17.6412 19.5354 18.2562 19.5353C19.7506 19.5353 20.4349 19.0042 20.7446 18.4678C21.1817 17.7107 21.2367 16.3126 19.016 13.9516C18.5888 13.4974 18.1038 13.0358 17.5705 12.5736ZM4.77092 17.8238C2.57754 18.3402 1.72217 17.9987 1.57633 17.7461C1.4305 17.4935 1.56252 16.582 3.10632 14.9406C3.55121 14.4677 4.06484 13.9849 4.63516 13.5013C5.23426 13.9649 5.87651 14.4244 6.55284 14.8729C6.60317 15.6829 6.67998 16.4689 6.78189 17.2195C6.0778 17.4716 5.40299 17.675 4.77092 17.8238ZM6.48575 13.0771C6.25057 12.91 6.02069 12.7421 5.79717 12.5736C6.02074 12.405 6.25057 12.237 6.48575 12.07C6.48354 12.2373 6.48225 12.4051 6.48225 12.5736C6.48225 12.742 6.48354 12.9099 6.48575 13.0771ZM6.55284 10.2741C5.87651 10.7227 5.23426 11.1821 4.63516 11.6458C4.06484 11.1621 3.55121 10.6794 3.10628 10.2064C1.56247 8.5651 1.4304 7.65365 1.57629 7.40098C1.66655 7.24464 2.02849 7.05423 2.81129 7.05423C3.29333 7.05423 3.93494 7.12643 4.77082 7.3232C5.4029 7.47199 6.07775 7.67548 6.7818 7.92751C6.67994 8.67816 6.60313 9.46417 6.55284 10.2741ZM12.9964 9.31815C12.8527 9.23259 12.708 9.14758 12.5621 9.06331C12.4162 8.97913 12.2702 8.89634 12.1242 8.8146C12.3865 8.69446 12.6469 8.57933 12.9046 8.47006C12.9388 8.74792 12.9694 9.03094 12.9964 9.31815ZM8.87087 4.95617C9.5204 2.79853 10.2437 2.22844 10.5354 2.22844C10.8271 2.22844 11.5505 2.79853 12.2 4.95617C12.3872 5.57793 12.5484 6.26411 12.6821 6.99984C11.9811 7.28687 11.262 7.61331 10.5354 7.9748C9.80881 7.6134 9.08974 7.28691 8.38874 6.99989C8.52246 6.26416 8.68373 5.57793 8.87087 4.95617ZM8.16632 8.47011C8.4241 8.57943 8.68442 8.69446 8.94667 8.81465C8.80069 8.89638 8.65472 8.97918 8.50883 9.06341C8.36295 9.14758 8.21826 9.23259 8.0745 9.31815C8.10157 9.03094 8.1321 8.74797 8.16632 8.47011ZM8.0745 15.829C8.21826 15.9145 8.36295 15.9995 8.50879 16.0838C8.65467 16.168 8.80065 16.2508 8.94667 16.3325C8.68437 16.4527 8.42406 16.5677 8.16632 16.6771C8.1321 16.3992 8.10162 16.1162 8.0745 15.829ZM12.2001 20.191C11.5505 22.3486 10.8272 22.9187 10.5355 22.9187C10.2437 22.9187 9.5204 22.3486 8.87092 20.191C8.68373 19.5692 8.52251 18.883 8.38878 18.1472C9.08979 17.8602 9.8089 17.5338 10.5355 17.1723C11.2621 17.5337 11.9812 17.8603 12.6822 18.1473C12.5485 18.883 12.3872 19.5692 12.2001 20.191ZM12.9046 16.6771C12.6469 16.5677 12.3865 16.4527 12.1242 16.3325C12.2702 16.2507 12.4161 16.1679 12.562 16.0837C12.7079 15.9995 12.8527 15.9145 12.9964 15.8289C12.9694 16.1162 12.9388 16.3992 12.9046 16.6771ZM13.1147 14.0627C12.7011 14.3246 12.2758 14.5822 11.8403 14.8337C11.4048 15.0851 10.9691 15.3246 10.5354 15.5518C10.1018 15.3246 9.66605 15.085 9.23052 14.8337C8.79508 14.5822 8.36976 14.3247 7.95615 14.0628C7.93612 13.5736 7.92571 13.0765 7.92571 12.5736C7.92571 12.0707 7.93612 11.5736 7.95615 11.0844C8.36976 10.8225 8.79508 10.5648 9.23052 10.3135C9.66601 10.062 10.1017 9.82248 10.5354 9.59527C10.9691 9.82253 11.4048 10.0621 11.8403 10.3135C12.2758 10.5649 12.7011 10.8225 13.1147 11.0844C13.1347 11.5736 13.1451 12.0707 13.1451 12.5736C13.1452 13.0764 13.1348 13.5735 13.1147 14.0627ZM16.3001 7.32329C17.136 7.12648 17.7776 7.05432 18.2597 7.05432C19.0423 7.05432 19.4044 7.24469 19.4946 7.40107C19.6405 7.65374 19.5085 8.5652 17.9646 10.2065C17.5198 10.6795 17.0061 11.1622 16.4358 11.6459C15.8367 11.1823 15.1945 10.7228 14.5182 10.2742C14.4678 9.46426 14.391 8.67829 14.2891 7.9276C14.9931 7.67557 15.668 7.47208 16.3001 7.32329ZM14.5852 12.07C14.8204 12.237 15.0502 12.405 15.2738 12.5736C15.0502 12.7421 14.8204 12.91 14.5852 13.0771C14.5874 12.9098 14.5887 12.742 14.5887 12.5736C14.5887 12.4051 14.5874 12.2373 14.5852 12.07ZM19.4946 17.7461C19.3488 17.9988 18.4932 18.3401 16.3 17.8239C15.6679 17.6751 14.993 17.4716 14.2891 17.2196C14.391 16.469 14.4678 15.683 14.5182 14.8729C15.1945 14.4244 15.8368 13.9649 16.4358 13.5013C17.0061 13.9849 17.5197 14.4677 17.9646 14.9406C19.5084 16.582 19.6405 17.4935 19.4946 17.7461Z" fill="#4A6A99"/>
<path d="M11.4003 12.0634L10.5192 11.5576L9.64062 12.0678L9.64316 13.0837L10.5242 13.5895L11.4028 13.0793L11.4003 12.0634Z" fill="#4A6A99"/>
</svg>
