<svg width="76" height="76" viewBox="0 0 76 76" fill="none" xmlns="http://www.w3.org/2000/svg">
<path d="M73.6265 45.9562L66.739 40.9688C66.8578 40.0187 66.8578 38.95 66.8578 38C66.8578 36.9312 66.8578 35.9812 66.739 35.0312L73.6265 30.0437C74.814 29.3312 75.1703 27.9062 74.4578 26.8375L66.0265 12.4688C65.314 11.2813 63.889 10.925 62.7015 11.6375L54.864 15.0812C53.2015 13.8937 51.4203 12.9438 49.5203 12.1125L48.8078 3.5625C48.8078 2.25625 47.739 1.1875 46.4328 1.1875H29.5703C28.264 1.1875 27.1953 2.25625 27.1953 3.5625L26.364 11.9937C24.464 12.825 22.6828 13.775 21.0203 14.9625L13.1828 11.5188C11.9953 10.8062 10.5703 11.2813 9.85776 12.35L1.54526 26.8375C0.832762 28.025 1.30776 29.45 2.37651 30.0437L9.26401 35.0312C9.14526 35.9812 9.14526 37.05 9.14526 38C9.14526 38.95 9.14526 40.0187 9.26401 40.9688L2.37651 45.9562C1.18901 46.6688 0.832762 48.0938 1.54526 49.1625L9.97651 63.5312C10.689 64.7188 12.114 65.075 13.3015 64.3625L21.139 60.9187C22.8015 62.1062 24.5828 63.0562 26.4828 63.8875L27.1953 72.4375C27.1953 73.7438 28.264 74.8125 29.5703 74.8125H46.4328C47.739 74.8125 48.8078 73.7438 48.8078 72.4375L49.639 64.0062C51.539 63.175 53.3203 62.225 54.9828 61.0375L62.8203 64.4813C64.0078 65.1937 65.4328 64.7187 66.1453 63.65L74.5765 49.2812C75.1703 48.0937 74.6953 46.6688 73.6265 45.9562ZM38.0015 52.0125C30.164 52.0125 23.7515 45.7188 23.7515 38C23.7515 30.2812 30.164 23.9875 38.0015 23.9875C45.839 23.9875 52.2515 30.2812 52.2515 38C52.2515 45.7188 45.839 52.0125 38.0015 52.0125Z" fill="#FAC546"/>
<path d="M46.4312 76H29.5688C27.6688 76 26.0063 74.4562 26.0063 72.5562L25.175 64.9562C23.6313 64.2437 22.2062 63.4125 20.9 62.4625L13.775 65.6687C12.1125 66.6187 9.85625 66.025 8.90625 64.3625L0.475 49.7562C2.65427e-07 48.925 -0.11875 47.975 0.11875 47.025C0.35625 46.075 0.95 45.3625 1.78125 44.8875L8.075 40.375C7.95625 39.5437 7.95625 38.7125 7.95625 37.8812C7.95625 37.05 7.95625 36.2187 8.075 35.3875L1.78125 30.875C0.95 30.4 0.35625 29.6875 0.11875 28.7375C-0.11875 27.7875 2.65427e-07 26.8375 0.475 26.0062L8.90625 11.6375C9.85625 9.975 11.9938 9.38125 13.775 10.3312L20.9 13.5375C22.2062 12.5875 23.75 11.7562 25.175 11.0437L26.0063 3.44375C26.0063 1.54375 27.55 0 29.5688 0H46.4312C48.3312 0 49.9938 1.54375 49.9938 3.44375L50.825 11.0437C52.3688 11.7562 53.7937 12.5875 55.1 13.5375L62.225 10.3312C63.8875 9.38125 66.1438 9.975 67.0938 11.6375L75.525 26.0062C76 26.8375 76.1188 27.7875 75.8812 28.7375C75.6437 29.6875 75.05 30.4 74.2188 30.875L67.925 35.3875C68.0438 36.2187 68.0437 37.05 68.0437 37.8812C68.0437 38.7125 68.0438 39.5437 67.925 40.375L74.2188 44.8875C75.05 45.3625 75.6437 46.075 75.8812 47.025C76.1188 47.975 76 48.925 75.525 49.7562L67.0938 64.125C66.1438 65.7875 64.0063 66.3812 62.225 65.4312L55.1 62.225C53.7937 63.175 52.25 64.0062 50.825 64.7187L49.9938 72.3187C49.9938 74.4562 48.3312 76 46.4312 76ZM21.0187 59.85C21.2563 59.85 21.4938 59.9687 21.7313 60.0875C23.275 61.275 25.0562 62.225 26.8375 62.9375C27.1938 63.0562 27.55 63.5312 27.55 63.8875L28.3813 72.3187V72.4375C28.3813 73.15 28.975 73.625 29.5688 73.625H46.4312C47.1437 73.625 47.6188 73.15 47.6188 72.4375V72.3187L48.45 63.8875C48.45 63.4125 48.8062 63.0562 49.1625 62.9375C50.9437 62.1062 52.6063 61.1562 54.2688 60.0875C54.625 59.85 55.1 59.85 55.4562 59.9687L63.2938 63.4125H63.4125C64.0062 63.7687 64.7188 63.5312 65.075 62.9375L73.5062 48.5687C73.625 48.3312 73.7438 47.975 73.625 47.7375C73.5063 47.3812 73.3875 47.1437 73.0312 47.025C73.0312 47.025 72.9125 47.025 72.9125 46.9062L66.025 41.9187C65.6687 41.6812 65.4313 41.2062 65.55 40.85C65.6687 39.9 65.6688 38.95 65.6688 38C65.6688 37.05 65.6687 36.1 65.55 35.15C65.55 34.675 65.6687 34.3187 66.025 34.0812L72.9125 29.0937C72.9125 29.0937 73.0312 29.0937 73.0312 28.975C73.2688 28.8562 73.5063 28.5 73.625 28.2625C73.7438 27.9062 73.625 27.6687 73.5062 27.4312L65.075 13.0625C64.7188 12.4687 64.0062 12.35 63.4125 12.5875H63.2938L55.4562 16.0312C55.1 16.15 54.625 16.15 54.2688 15.9125C52.725 14.725 50.9437 13.775 49.1625 13.0625C48.8062 12.9437 48.45 12.4687 48.45 12.1125L47.6188 3.68125V3.5625C47.6188 2.85 47.025 2.375 46.4312 2.375H29.5688C28.8563 2.375 28.3813 2.85 28.3813 3.5625V3.68125L27.55 12.1125C27.55 12.5875 27.1938 12.9437 26.8375 13.0625C25.0562 13.8937 23.3938 14.8438 21.7313 15.9125C21.375 16.15 20.9 16.15 20.5438 16.0312L12.7063 12.5875H12.5875C11.9938 12.2312 11.2812 12.4687 10.925 13.0625L2.49375 27.4312C2.375 27.6687 2.25625 28.025 2.375 28.2625C2.49375 28.6187 2.6125 28.8562 2.96875 28.975C2.96875 28.975 3.0875 28.975 3.0875 29.0937L9.975 34.0812C10.3312 34.3187 10.5688 34.7937 10.45 35.15C10.3313 36.1 10.3312 37.05 10.3312 38C10.3312 38.95 10.3313 39.9 10.45 40.85C10.45 41.325 10.3312 41.6812 9.975 41.9187L3.0875 46.9062C3.0875 46.9062 2.96875 46.9062 2.96875 47.025C2.73125 47.1437 2.49375 47.5 2.375 47.7375C2.25625 48.0937 2.375 48.3312 2.49375 48.5687L10.925 62.9375C11.2812 63.5312 11.9938 63.65 12.5875 63.4125H12.7063L20.5438 59.9687C20.6625 59.85 20.7812 59.85 21.0187 59.85ZM38 53.2C29.45 53.2 22.5625 46.3125 22.5625 38C22.5625 29.6875 29.45 22.8 38 22.8C46.55 22.8 53.4375 29.6875 53.4375 38C53.4375 46.3125 46.4313 53.2 38 53.2ZM38 25.175C30.7563 25.175 24.9375 30.9937 24.9375 38C24.9375 45.125 30.7563 50.825 38 50.825C45.2438 50.825 51.0625 45.0062 51.0625 38C51.0625 30.875 45.125 25.175 38 25.175Z" fill="#231C1C"/>
<path d="M38.0016 21.375C28.7391 21.375 21.2578 28.8563 21.2578 38C21.2578 47.1438 28.7391 54.625 38.0016 54.625C47.2641 54.625 54.7453 47.1438 54.7453 38C54.7453 28.8563 47.1453 21.375 38.0016 21.375ZM38.0016 47.5C32.6578 47.5 28.3828 43.225 28.3828 38C28.3828 32.775 32.6578 28.5 38.0016 28.5C43.3453 28.5 47.6203 32.775 47.6203 38C47.6203 43.225 43.2266 47.5 38.0016 47.5Z" fill="#E1E0A6"/>
<path d="M38.0016 55.8125C28.1453 55.8125 20.0703 47.8562 20.0703 38C20.0703 28.1438 28.1453 20.1875 38.0016 20.1875C47.8578 20.1875 55.9328 28.1438 55.9328 38C55.8141 47.8562 47.8578 55.8125 38.0016 55.8125ZM38.0016 22.5625C29.4516 22.5625 22.4453 29.45 22.4453 38C22.4453 46.55 29.4516 53.4375 38.0016 53.4375C46.5516 53.4375 53.5578 46.55 53.5578 38C53.4391 29.45 46.5516 22.5625 38.0016 22.5625ZM38.0016 48.6875C32.0641 48.6875 27.1953 43.9375 27.1953 38C27.1953 32.0625 32.0641 27.3125 38.0016 27.3125C43.9391 27.3125 48.8078 32.0625 48.8078 38C48.8078 43.9375 43.9391 48.6875 38.0016 48.6875ZM38.0016 29.6875C33.3703 29.6875 29.5703 33.3688 29.5703 38C29.5703 42.6313 33.3703 46.3125 38.0016 46.3125C42.6328 46.3125 46.4328 42.6313 46.4328 38C46.4328 33.3688 42.6328 29.6875 38.0016 29.6875Z" fill="#231C1C"/>
</svg>
