<svg width="83" height="78" viewBox="0 0 83 78" fill="none" xmlns="http://www.w3.org/2000/svg">
<path d="M41.697 1.6333H41.5026C39.594 1.6333 38.0469 3.18058 38.0469 5.089V8.86246H45.1529V5.089C45.1527 3.18042 43.6056 1.6333 41.697 1.6333Z" fill="#FAC546"/>
<path d="M71.2622 56.8618H51.2772H11.9321C6.57408 56.8618 2.23047 61.2054 2.23047 66.5635C2.23047 71.9215 6.57408 76.2651 11.9321 76.2651H31.8736H71.2619C76.6199 76.2651 80.9635 71.9215 80.9635 66.5635C80.9635 61.2054 76.6203 56.8618 71.2622 56.8618Z" fill="#FAC546"/>
<path d="M50.9548 20.7871H32.241C26.1451 20.7871 21.2031 25.7289 21.2031 31.825V56.8621H61.9925V31.8248C61.9927 25.7287 57.051 20.7871 50.9548 20.7871Z" fill="#FAC546"/>
<path d="M41.7952 6.20703H41.4031C37.5541 6.20703 34.4336 9.32753 34.4336 13.1766V20.7871H48.7647V13.1764C48.7647 9.32737 45.6444 6.20703 41.7952 6.20703Z" fill="#FAC546"/>
<path d="M71.2628 55.2288H63.628V31.8249C63.628 24.8381 57.9437 19.1538 50.9567 19.1538H50.397V13.1767C50.397 10.2926 48.969 7.73766 46.7843 6.17581V5.08914C46.7843 2.28303 44.5013 0 41.695 0H41.5006C38.6945 0 36.4113 2.28303 36.4113 5.08914V6.17581C34.2267 7.73749 32.7986 10.2926 32.7986 13.1767V19.1538H32.2427C25.2557 19.1538 19.5714 24.8381 19.5714 31.8249V55.2288H11.9329C5.68263 55.2288 0.597656 60.3138 0.597656 66.564C0.597656 72.8143 5.68263 77.8991 11.9329 77.8991H71.2627C77.513 77.8991 82.5978 72.8143 82.5978 66.564C82.5978 60.3138 77.5131 55.2288 71.2628 55.2288ZM41.5006 3.26704H41.695C42.5808 3.26704 43.3201 3.90238 43.483 4.74128C42.9365 4.63205 42.3718 4.57392 41.7938 4.57392H41.4018C40.8238 4.57392 40.259 4.63222 39.7126 4.74128C39.8755 3.90238 40.6148 3.26704 41.5006 3.26704ZM36.0657 13.1766C36.0657 10.2343 38.4594 7.84064 41.4018 7.84064H41.7938C44.7362 7.84064 47.1299 10.2343 47.1299 13.1766V19.1536H36.0658L36.0657 13.1766ZM50.9566 22.4207C56.1421 22.4207 60.361 26.6394 60.361 31.8249V51.8003L53.0135 42.4175V33.8304C53.0135 32.9284 52.2822 32.197 51.38 32.197C50.4779 32.197 49.7466 32.9284 49.7466 33.8304V42.981C49.7466 43.3461 49.8689 43.7005 50.094 43.988L58.8965 55.229H24.4189L33.2214 43.988C33.4465 43.7005 33.5688 43.3461 33.5688 42.981V33.8304C33.5688 32.9284 32.8375 32.197 31.9354 32.197C31.0332 32.197 30.3019 32.9284 30.3019 33.8304V42.4174L22.8385 51.9483V31.8249C22.8385 26.6395 27.0572 22.4207 32.2429 22.4207H50.9566ZM71.2628 58.4957C75.7117 58.4957 79.3311 62.1151 79.3311 66.564C79.3311 71.013 75.7117 74.6323 71.2628 74.6323H35.7538L42.2411 68.145C42.8791 67.507 42.8791 66.4728 42.2411 65.8347C41.6032 65.197 40.569 65.197 39.9309 65.8347L31.1335 74.6321H11.9329C7.48392 74.6321 3.86453 71.0129 3.86453 66.564C3.86453 62.1152 7.48392 58.4957 11.9329 58.4957H71.2628Z" fill="black"/>
<path d="M44.9937 60.7708L44.0136 61.7509C43.3757 62.3889 43.3757 63.4231 44.0136 64.0612C44.3326 64.3801 44.7506 64.5396 45.1686 64.5396C45.5866 64.5396 46.0048 64.3801 46.3237 64.0612L47.3038 63.081C47.9418 62.4431 47.9418 61.4089 47.3038 60.7708C46.6659 60.133 45.6316 60.133 44.9937 60.7708Z" fill="black"/>
</svg>
