<svg width="84" height="82" viewBox="0 0 84 82" fill="none" xmlns="http://www.w3.org/2000/svg">
<mask id="path-1-outside-1_6186_12373" maskUnits="userSpaceOnUse" x="0" y="0" width="84" height="82" fill="black">
<rect fill="white" width="84" height="82"/>
<path d="M74.5819 25.6836L75.9196 23.4761C75.9196 23.4761 77.0974 21.5235 77.0974 18.9014C77.0974 12.5496 71.0368 12.7173 71.0368 12.7173L57.8327 9.12275L50.6294 2L41.1511 4.58052L38.0428 3.73421L35.6807 6.07033L22.0346 9.78575C22.0346 9.78575 16.7826 9.64145 16.7826 15.1457C16.7826 17.4181 17.8044 19.1107 17.8044 19.1107L19.5607 22.0097L18.0176 23.5333L10.3996 25.6082C10.3996 25.6082 4.339 25.4405 4.339 31.7923C4.35112 33.2722 4.6973 34.7302 5.3517 36.0576L3 38.3833L4.2337 38.8722C4.261 38.9385 4.2714 39.0126 4.3247 39.0659C6.7102 41.4566 6.5139 44.6676 6.1733 46.4018L4.7316 47.8461L15.6529 53.0969L30.6523 77.8555C33.056 81.6333 38.1585 79.2699 38.1585 79.2699L76.7022 60.737L75.2605 59.2927C74.9199 57.5585 74.7236 54.3475 77.1091 51.9554C77.1624 51.9021 77.1728 51.828 77.2001 51.763L78.4338 51.2729L71.2669 44.1879L79.4959 40.232L78.2466 38.9801C77.9515 37.4772 77.7812 34.6939 79.8495 32.6217C79.895 32.5749 79.9028 32.5125 79.9275 32.454L81 32.0289L74.5819 25.6836ZM67.1914 14.198L65.5664 16.7694L61.3622 12.612L67.1914 14.198ZM51.3288 8.68725L57.3647 15.1392L35.539 23.0263L30.3845 15.0235L51.3288 8.68725ZM20.8672 24.1678L35.7613 48.7522L7.3862 37.4967L20.8672 24.1678ZM14.6597 26.8549L12.9112 28.5839L12.2118 27.5114L14.6597 26.8549ZM9.1386 28.1991L10.7662 30.7042L7.2393 34.1908C6.96179 33.4213 6.81631 32.6103 6.809 31.7923C6.809 29.4185 7.9868 28.515 9.1386 28.1991ZM7.1002 47.5341L7.1197 47.4587L39.8108 61.7679L7.3758 46.3056C7.4057 46.1301 7.4291 45.9364 7.4538 45.7414L32.8467 56.3755L7.5422 44.5246C7.54865 43.983 7.51127 43.4417 7.4304 42.9061L30.9331 52.5846L7.1145 41.5203C6.96161 41.0081 6.75688 40.5128 6.5035 40.0422L38.8514 53.8548L39.5872 55.069C41.1043 57.4532 43.8564 57.0125 45.2435 56.5991C47.161 57.5455 50.5982 59.7347 49.7181 62.96C49.254 64.6656 48.2335 65.4924 46.5994 65.4924C44.9445 65.4924 43.2922 64.6266 43.2753 64.6149L7.1002 47.5341ZM39.66 64.6409L37.1042 65.6991L34.9332 62.3672L39.66 64.6409ZM29.7618 71.6363L19.7141 55.0495L29.7007 59.8504L34.4236 67.12C32.5191 67.9339 30.391 69.7916 29.7618 71.6363ZM74.0047 55.797C73.9239 56.3326 73.8865 56.8738 73.8929 57.4155L48.5884 69.2664L73.9813 58.6323C74.006 58.826 74.0281 59.021 74.0593 59.1965L41.6243 74.6601L74.3154 60.3509C74.3227 60.3758 74.3292 60.401 74.3349 60.4263L38.1598 77.5045C38.1429 77.5162 36.4932 78.382 34.8357 78.382C33.2003 78.382 32.1811 77.5539 31.717 75.8496C30.5236 71.4725 37.3096 68.9908 37.411 68.9531L43.3585 66.4154C43.9968 66.6871 48.5507 68.4747 50.7828 64.9659L52.1907 62.6441L74.9329 52.933C74.6796 53.4039 74.4745 53.8991 74.3206 54.4112L50.502 65.4755L74.0047 55.797ZM74.0489 50.3876L54.7764 58.3749L60.1246 49.5465L68.9217 45.3176L74.0489 50.3876ZM77.1598 35.9484C77.0906 36.4127 77.058 36.8817 77.0623 37.3511L55.1339 47.6212L77.1403 38.4054C77.1624 38.5732 77.1806 38.7435 77.2079 38.8943L49.0967 52.2947L77.4289 39.894C77.4357 39.9153 77.4414 39.937 77.4458 39.959L46.0937 54.7622C46.0794 54.7713 44.6481 55.5227 43.2129 55.5227C41.7946 55.5227 40.9119 54.8038 40.5102 53.327C39.4754 49.5335 45.3566 47.3833 45.445 47.3508L77.9632 33.4667C77.7439 33.875 77.5666 34.3045 77.4341 34.7485L56.7901 44.3374L77.1598 35.9484Z"/>
</mask>
<path d="M74.5819 25.6836L75.9196 23.4761C75.9196 23.4761 77.0974 21.5235 77.0974 18.9014C77.0974 12.5496 71.0368 12.7173 71.0368 12.7173L57.8327 9.12275L50.6294 2L41.1511 4.58052L38.0428 3.73421L35.6807 6.07033L22.0346 9.78575C22.0346 9.78575 16.7826 9.64145 16.7826 15.1457C16.7826 17.4181 17.8044 19.1107 17.8044 19.1107L19.5607 22.0097L18.0176 23.5333L10.3996 25.6082C10.3996 25.6082 4.339 25.4405 4.339 31.7923C4.35112 33.2722 4.6973 34.7302 5.3517 36.0576L3 38.3833L4.2337 38.8722C4.261 38.9385 4.2714 39.0126 4.3247 39.0659C6.7102 41.4566 6.5139 44.6676 6.1733 46.4018L4.7316 47.8461L15.6529 53.0969L30.6523 77.8555C33.056 81.6333 38.1585 79.2699 38.1585 79.2699L76.7022 60.737L75.2605 59.2927C74.9199 57.5585 74.7236 54.3475 77.1091 51.9554C77.1624 51.9021 77.1728 51.828 77.2001 51.763L78.4338 51.2729L71.2669 44.1879L79.4959 40.232L78.2466 38.9801C77.9515 37.4772 77.7812 34.6939 79.8495 32.6217C79.895 32.5749 79.9028 32.5125 79.9275 32.454L81 32.0289L74.5819 25.6836ZM67.1914 14.198L65.5664 16.7694L61.3622 12.612L67.1914 14.198ZM51.3288 8.68725L57.3647 15.1392L35.539 23.0263L30.3845 15.0235L51.3288 8.68725ZM20.8672 24.1678L35.7613 48.7522L7.3862 37.4967L20.8672 24.1678ZM14.6597 26.8549L12.9112 28.5839L12.2118 27.5114L14.6597 26.8549ZM9.1386 28.1991L10.7662 30.7042L7.2393 34.1908C6.96179 33.4213 6.81631 32.6103 6.809 31.7923C6.809 29.4185 7.9868 28.515 9.1386 28.1991ZM7.1002 47.5341L7.1197 47.4587L39.8108 61.7679L7.3758 46.3056C7.4057 46.1301 7.4291 45.9364 7.4538 45.7414L32.8467 56.3755L7.5422 44.5246C7.54865 43.983 7.51127 43.4417 7.4304 42.9061L30.9331 52.5846L7.1145 41.5203C6.96161 41.0081 6.75688 40.5128 6.5035 40.0422L38.8514 53.8548L39.5872 55.069C41.1043 57.4532 43.8564 57.0125 45.2435 56.5991C47.161 57.5455 50.5982 59.7347 49.7181 62.96C49.254 64.6656 48.2335 65.4924 46.5994 65.4924C44.9445 65.4924 43.2922 64.6266 43.2753 64.6149L7.1002 47.5341ZM39.66 64.6409L37.1042 65.6991L34.9332 62.3672L39.66 64.6409ZM29.7618 71.6363L19.7141 55.0495L29.7007 59.8504L34.4236 67.12C32.5191 67.9339 30.391 69.7916 29.7618 71.6363ZM74.0047 55.797C73.9239 56.3326 73.8865 56.8738 73.8929 57.4155L48.5884 69.2664L73.9813 58.6323C74.006 58.826 74.0281 59.021 74.0593 59.1965L41.6243 74.6601L74.3154 60.3509C74.3227 60.3758 74.3292 60.401 74.3349 60.4263L38.1598 77.5045C38.1429 77.5162 36.4932 78.382 34.8357 78.382C33.2003 78.382 32.1811 77.5539 31.717 75.8496C30.5236 71.4725 37.3096 68.9908 37.411 68.9531L43.3585 66.4154C43.9968 66.6871 48.5507 68.4747 50.7828 64.9659L52.1907 62.6441L74.9329 52.933C74.6796 53.4039 74.4745 53.8991 74.3206 54.4112L50.502 65.4755L74.0047 55.797ZM74.0489 50.3876L54.7764 58.3749L60.1246 49.5465L68.9217 45.3176L74.0489 50.3876ZM77.1598 35.9484C77.0906 36.4127 77.058 36.8817 77.0623 37.3511L55.1339 47.6212L77.1403 38.4054C77.1624 38.5732 77.1806 38.7435 77.2079 38.8943L49.0967 52.2947L77.4289 39.894C77.4357 39.9153 77.4414 39.937 77.4458 39.959L46.0937 54.7622C46.0794 54.7713 44.6481 55.5227 43.2129 55.5227C41.7946 55.5227 40.9119 54.8038 40.5102 53.327C39.4754 49.5335 45.3566 47.3833 45.445 47.3508L77.9632 33.4667C77.7439 33.875 77.5666 34.3045 77.4341 34.7485L56.7901 44.3374L77.1598 35.9484Z" fill="#FAC546"/>
<path d="M74.5819 25.6836L75.9196 23.4761C75.9196 23.4761 77.0974 21.5235 77.0974 18.9014C77.0974 12.5496 71.0368 12.7173 71.0368 12.7173L57.8327 9.12275L50.6294 2L41.1511 4.58052L38.0428 3.73421L35.6807 6.07033L22.0346 9.78575C22.0346 9.78575 16.7826 9.64145 16.7826 15.1457C16.7826 17.4181 17.8044 19.1107 17.8044 19.1107L19.5607 22.0097L18.0176 23.5333L10.3996 25.6082C10.3996 25.6082 4.339 25.4405 4.339 31.7923C4.35112 33.2722 4.6973 34.7302 5.3517 36.0576L3 38.3833L4.2337 38.8722C4.261 38.9385 4.2714 39.0126 4.3247 39.0659C6.7102 41.4566 6.5139 44.6676 6.1733 46.4018L4.7316 47.8461L15.6529 53.0969L30.6523 77.8555C33.056 81.6333 38.1585 79.2699 38.1585 79.2699L76.7022 60.737L75.2605 59.2927C74.9199 57.5585 74.7236 54.3475 77.1091 51.9554C77.1624 51.9021 77.1728 51.828 77.2001 51.763L78.4338 51.2729L71.2669 44.1879L79.4959 40.232L78.2466 38.9801C77.9515 37.4772 77.7812 34.6939 79.8495 32.6217C79.895 32.5749 79.9028 32.5125 79.9275 32.454L81 32.0289L74.5819 25.6836ZM67.1914 14.198L65.5664 16.7694L61.3622 12.612L67.1914 14.198ZM51.3288 8.68725L57.3647 15.1392L35.539 23.0263L30.3845 15.0235L51.3288 8.68725ZM20.8672 24.1678L35.7613 48.7522L7.3862 37.4967L20.8672 24.1678ZM14.6597 26.8549L12.9112 28.5839L12.2118 27.5114L14.6597 26.8549ZM9.1386 28.1991L10.7662 30.7042L7.2393 34.1908C6.96179 33.4213 6.81631 32.6103 6.809 31.7923C6.809 29.4185 7.9868 28.515 9.1386 28.1991ZM7.1002 47.5341L7.1197 47.4587L39.8108 61.7679L7.3758 46.3056C7.4057 46.1301 7.4291 45.9364 7.4538 45.7414L32.8467 56.3755L7.5422 44.5246C7.54865 43.983 7.51127 43.4417 7.4304 42.9061L30.9331 52.5846L7.1145 41.5203C6.96161 41.0081 6.75688 40.5128 6.5035 40.0422L38.8514 53.8548L39.5872 55.069C41.1043 57.4532 43.8564 57.0125 45.2435 56.5991C47.161 57.5455 50.5982 59.7347 49.7181 62.96C49.254 64.6656 48.2335 65.4924 46.5994 65.4924C44.9445 65.4924 43.2922 64.6266 43.2753 64.6149L7.1002 47.5341ZM39.66 64.6409L37.1042 65.6991L34.9332 62.3672L39.66 64.6409ZM29.7618 71.6363L19.7141 55.0495L29.7007 59.8504L34.4236 67.12C32.5191 67.9339 30.391 69.7916 29.7618 71.6363ZM74.0047 55.797C73.9239 56.3326 73.8865 56.8738 73.8929 57.4155L48.5884 69.2664L73.9813 58.6323C74.006 58.826 74.0281 59.021 74.0593 59.1965L41.6243 74.6601L74.3154 60.3509C74.3227 60.3758 74.3292 60.401 74.3349 60.4263L38.1598 77.5045C38.1429 77.5162 36.4932 78.382 34.8357 78.382C33.2003 78.382 32.1811 77.5539 31.717 75.8496C30.5236 71.4725 37.3096 68.9908 37.411 68.9531L43.3585 66.4154C43.9968 66.6871 48.5507 68.4747 50.7828 64.9659L52.1907 62.6441L74.9329 52.933C74.6796 53.4039 74.4745 53.8991 74.3206 54.4112L50.502 65.4755L74.0047 55.797ZM74.0489 50.3876L54.7764 58.3749L60.1246 49.5465L68.9217 45.3176L74.0489 50.3876ZM77.1598 35.9484C77.0906 36.4127 77.058 36.8817 77.0623 37.3511L55.1339 47.6212L77.1403 38.4054C77.1624 38.5732 77.1806 38.7435 77.2079 38.8943L49.0967 52.2947L77.4289 39.894C77.4357 39.9153 77.4414 39.937 77.4458 39.959L46.0937 54.7622C46.0794 54.7713 44.6481 55.5227 43.2129 55.5227C41.7946 55.5227 40.9119 54.8038 40.5102 53.327C39.4754 49.5335 45.3566 47.3833 45.445 47.3508L77.9632 33.4667C77.7439 33.875 77.5666 34.3045 77.4341 34.7485L56.7901 44.3374L77.1598 35.9484Z" stroke="black" stroke-width="3" mask="url(#path-1-outside-1_6186_12373)"/>
</svg>
