<svg width="81" height="76" viewBox="0 0 81 76" fill="none" xmlns="http://www.w3.org/2000/svg">
<path d="M66.9219 62.127C66.9218 64.0955 65.9974 65.8578 64.5576 67.3369C63.1241 68.8095 61.1183 70.0714 58.749 71.1006C54.0058 73.1609 47.5512 74.4004 40.4971 74.4004C33.4456 74.4003 26.9927 73.1608 22.25 71.1006C19.8808 70.0714 17.8749 68.8095 16.4414 67.3369C15.0016 65.8578 14.0772 64.0956 14.0771 62.127V39.3223L16.209 40.6299L35.4277 52.4209C36.9529 53.3564 38.7028 53.8505 40.4971 53.8506C42.2921 53.8506 44.0465 53.3561 45.5713 52.4209L64.79 40.6299L66.9219 39.3223V62.127ZM76.8477 56.1074C77.6395 57.0073 78.1406 58.1866 78.1406 59.502C78.1406 60.6792 77.7412 61.757 77.084 62.6211L78.2012 67.8594L78.2363 68.0479C78.3821 68.9923 78.12 69.9563 77.5117 70.7002C76.8628 71.4939 75.891 71.9502 74.8691 71.9502H70.9609C69.9388 71.9501 68.9679 71.4931 68.3193 70.7002C67.6707 69.907 67.415 68.8633 67.6289 67.8594L68.7451 62.6211C68.0883 61.7572 67.6895 60.6789 67.6895 59.502C67.6895 58.1862 68.1912 57.0064 68.9834 56.1064V38.4268L69.6514 38.0166L74.7158 34.9111L76.8477 33.6035V56.1074ZM40.498 1.59961C41.7558 1.59967 43.0129 1.92023 44.1436 2.55762L44.3672 2.68945L44.3701 2.69141L77.3174 22.9033C78.6107 23.6959 79.4004 25.1005 79.4004 26.6152C79.4003 28.1301 78.6106 29.5338 77.3184 30.3271L44.3701 50.54L44.3682 50.542C43.1804 51.2675 41.8385 51.6318 40.4971 51.6318C39.1571 51.6318 37.8146 51.2673 36.6299 50.5391V50.54L3.68164 30.3271C2.38971 29.5337 1.59967 28.1303 1.59961 26.6152C1.59961 25.1948 2.29425 23.8725 3.44629 23.0596L3.68262 22.9033L36.6299 2.69141V2.69238C37.8144 1.96463 39.1575 1.59961 40.498 1.59961Z" fill="#FAC546" stroke="black" stroke-width="2.8"/>
</svg>
