<svg width="67" height="67" viewBox="0 0 67 67" fill="none" xmlns="http://www.w3.org/2000/svg">
<path d="M26.7222 9.77778L33.5 3M19.9444 47.0556L47.0556 19.9444M33.5 64L40.2778 57.2222M48.75 57.2222C53.4291 57.2222 57.2222 53.4291 57.2222 48.75C57.2222 44.0709 53.4291 40.2778 48.75 40.2778C44.0709 40.2778 40.2778 44.0709 40.2778 48.75C40.2778 53.4291 44.0709 57.2222 48.75 57.2222ZM18.25 26.7222C22.9291 26.7222 26.7222 22.9291 26.7222 18.25C26.7222 13.5709 22.9291 9.77778 18.25 9.77778C13.5709 9.77778 9.77778 13.5709 9.77778 18.25C9.77778 22.9291 13.5709 26.7222 18.25 26.7222ZM11.4722 64C16.1513 64 19.9444 60.2069 19.9444 55.5278C19.9444 50.8487 16.1513 47.0556 11.4722 47.0556C6.79314 47.0556 3 50.8487 3 55.5278C3 60.2069 6.79314 64 11.4722 64ZM55.5278 19.9444C60.2069 19.9444 64 16.1513 64 11.4722C64 6.79314 60.2069 3 55.5278 3C50.8487 3 47.0556 6.79314 47.0556 11.4722C47.0556 16.1513 50.8487 19.9444 55.5278 19.9444Z" stroke="#FFD118" stroke-width="5" stroke-linecap="round" stroke-linejoin="round"/>
</svg>
