<svg width="73" height="69" viewBox="0 0 73 69" fill="none" xmlns="http://www.w3.org/2000/svg">
<path fill-rule="evenodd" clip-rule="evenodd" d="M33.3681 3.13765C35.1287 1.72913 37.5774 1.62852 39.4363 2.83583L39.8543 3.13765L54.78 15.0781C56.2577 16.2604 57.1798 17.9896 57.3495 19.8566L57.3779 20.4835V60.3536H60.839V30.9341C60.839 30.0844 61.4513 29.3779 62.2585 29.2314L62.5696 29.2035H64.3001C67.9495 29.2035 70.9391 32.0273 71.2034 35.6092L71.2224 36.1258V63.4686C71.2224 65.4311 69.7375 67.0468 67.83 67.2535L67.4151 67.2759H5.80723C3.84474 67.2759 2.22904 65.791 2.02234 63.8835L2 63.4686V36.1258C2 32.4764 4.82385 29.4867 8.40562 29.2225L8.92224 29.2035H10.6528C11.5024 29.2035 12.2089 29.8156 12.3555 30.623L12.3834 30.9341V60.3536H15.8445V20.4835C15.8445 18.5909 16.6187 16.7907 17.9707 15.4919L18.4424 15.0781L33.3681 3.13765ZM36.6112 25.7424C32.788 25.7424 29.6889 28.8416 29.6889 32.6647C29.6889 36.4875 32.788 39.5869 36.6112 39.5869C40.4343 39.5869 43.5334 36.4875 43.5334 32.6647C43.5334 28.8416 40.4343 25.7424 36.6112 25.7424Z" fill="#FAC546" stroke="black" stroke-width="2.8"/>
</svg>
