<svg width="1920" height="1513" viewBox="0 0 1920 1513" fill="none" xmlns="http://www.w3.org/2000/svg">
<path d="M1077.8 0C1090.67 0 1101.27 9.25359 1102.99 21.2598C1105.86 20.7013 1108.83 20.4004 1111.87 20.4004C1125.22 20.4004 1137.21 26.0373 1145.45 34.9863C1148.38 35.0067 1151.24 35.303 1154.01 35.8418C1155.73 23.8357 1166.33 14.583 1179.2 14.583C1191.18 14.5832 1201.2 22.6155 1203.91 33.4209C1211.7 28.7711 1220.86 26.0821 1230.68 26.082C1252.25 26.082 1270.68 39.0301 1278.18 57.3369C1282.06 54.4954 1286.88 52.7881 1292.12 52.7881C1296.45 52.7882 1300.49 53.9384 1303.96 55.9385C1311.43 51.788 1320.09 49.4141 1329.32 49.4141C1339.14 49.4141 1348.3 52.1031 1356.09 56.7529C1358.8 45.9475 1368.82 37.9152 1380.8 37.915C1393.67 37.915 1404.27 47.1677 1405.99 59.1738C1407.7 58.8416 1409.44 58.6025 1411.21 58.4619C1418.71 44.5104 1433.77 34.9834 1451.13 34.9834C1454.17 34.9834 1457.14 35.2833 1460.01 35.8418C1461.73 23.8357 1472.33 14.583 1485.2 14.583C1497.18 14.5832 1507.2 22.6155 1509.91 33.4209C1517.7 28.7711 1526.86 26.0821 1536.68 26.082C1558.25 26.082 1576.68 39.0301 1584.18 57.3369C1588.06 54.4954 1592.88 52.7881 1598.12 52.7881C1604.84 52.7882 1610.89 55.5627 1615.12 59.9922C1619.16 51.5502 1627.96 45.6924 1638.2 45.6924C1650.18 45.6926 1660.2 53.7249 1662.91 64.5303C1670.7 59.8804 1679.86 57.1914 1689.68 57.1914C1698.84 57.1914 1707.43 59.5279 1714.86 63.6172C1721.16 46.9098 1737.71 34.9834 1757.13 34.9834C1760.17 34.9834 1763.14 35.2833 1766.01 35.8418C1767.73 23.8357 1778.33 14.583 1791.2 14.583C1803.18 14.5832 1813.2 22.6155 1815.91 33.4209C1823.7 28.7711 1832.86 26.0821 1842.68 26.082C1864.25 26.082 1882.68 39.0301 1890.18 57.3369C1894.06 54.4954 1898.88 52.7881 1904.12 52.7881C1916.91 52.7883 1927.28 62.8362 1927.28 75.2285C1927.28 76.8252 1927.1 78.3801 1926.77 79.8809C1930.64 78.0799 1934.95 77.0391 1939.53 77.0391C1955.8 77.0391 1969 89.8258 1969 105.599C1969 109.652 1968.13 113.507 1966.56 117H1984V1406H-55V134.159H-141.853C-153.532 134.159 -163 124.982 -163 113.665C-163 102.348 -153.532 93.1738 -141.853 93.1738C-140.67 93.1738 -139.514 93.2897 -138.385 93.4717C-138.319 87.9951 -133.728 83.5742 -128.061 83.5742C-126.354 83.5742 -124.77 84.0141 -123.351 84.7227C-123.645 82.7078 -123.851 80.6634 -123.851 78.5674C-123.851 54.496 -103.714 34.9834 -78.8721 34.9834C-75.8305 34.9834 -72.8598 35.2833 -69.9883 35.8418C-68.2719 23.8357 -57.6663 14.583 -44.8037 14.583C-32.8198 14.5832 -22.7984 22.6155 -20.0918 33.4209C-12.3048 28.7711 -3.13657 26.0821 6.68164 26.082C22.6652 26.082 36.9253 33.1953 46.292 44.3301C53.9492 38.4767 63.6175 34.9834 74.1279 34.9834C77.1695 34.9834 80.1402 35.2833 83.0117 35.8418C84.7281 23.8357 95.3337 14.583 108.196 14.583C120.18 14.5832 130.202 22.6155 132.908 33.4209C140.695 28.7711 149.863 26.0821 159.682 26.082C179.505 26.082 196.678 37.0234 205.151 53.0098C212.296 48.3787 220.886 45.6768 230.128 45.6768C233.169 45.6768 236.14 45.9777 239.012 46.5361C240.728 34.53 251.334 25.2764 264.196 25.2764C276.18 25.2766 286.202 33.3098 288.908 44.1152C296.695 39.4653 305.863 36.7754 315.682 36.7754C337.018 36.7754 355.283 49.4499 362.936 67.4473C363.819 67.0927 364.717 66.7634 365.628 66.4629C369.014 64.5738 372.932 63.4824 377.121 63.4824C379.203 63.4825 381.22 63.7499 383.139 64.249C385.135 64.3792 387.096 64.6342 389.012 65.0068C390.728 53.0008 401.334 43.748 414.196 43.748C426.18 43.7482 436.202 51.7806 438.908 62.5859C446.695 57.9361 455.863 55.2471 465.682 55.2471C480.026 55.2471 492.983 60.9766 502.26 70.2002C510.315 62.8327 521.177 58.3154 533.128 58.3154C536.169 58.3155 539.14 58.6154 542.012 59.1738C543.728 47.1677 554.334 37.915 567.196 37.915C579.18 37.9152 589.202 45.9475 591.908 56.7529C599.695 52.1031 608.863 49.4141 618.682 49.4141C636.824 49.4141 652.745 58.5781 661.811 72.3857C669.21 67.204 678.3 64.1484 688.128 64.1484C691.169 64.1485 694.14 64.4484 697.012 65.0068C698.728 53.0008 709.334 43.748 722.196 43.748C734.18 43.7482 744.202 51.7806 746.908 62.5859C754.695 57.9361 763.863 55.2471 773.682 55.2471C779.958 55.2471 785.968 56.3453 791.521 58.3516C794.373 36.9413 813.256 20.4004 836.128 20.4004C839.169 20.4004 842.14 20.7013 845.012 21.2598C846.728 9.25359 857.334 0 870.196 0C882.18 0.000194333 892.202 8.03267 894.908 18.8379C902.695 14.1881 911.864 11.4991 921.682 11.499C941.456 11.499 958.593 22.3863 967.088 38.3076C969.523 38.5335 971.846 39.1287 974 40.0312C976.154 39.1288 978.476 38.5336 980.911 38.3076C989.406 22.3861 1006.54 11.499 1026.32 11.499C1036.14 11.4991 1045.3 14.1881 1053.09 18.8379C1055.8 8.03267 1065.82 0.000194333 1077.8 0Z" fill="#2FC18B"/>
<path d="M1939.53 1442.13C1934.95 1442.13 1930.64 1441.18 1926.77 1439.52C1927.1 1440.9 1927.28 1442.33 1927.28 1443.8C1927.28 1455.19 1916.91 1464.43 1904.12 1464.43C1898.88 1464.43 1894.06 1462.86 1890.18 1460.25C1882.68 1477.08 1864.25 1488.99 1842.68 1488.99C1832.86 1488.99 1823.7 1486.52 1815.91 1482.24C1813.2 1492.18 1803.18 1499.57 1791.2 1499.57C1778.33 1499.57 1767.73 1491.06 1766.01 1480.02C1763.14 1480.53 1760.17 1480.81 1757.13 1480.81C1732.29 1480.81 1712.15 1462.86 1712.15 1440.73C1712.15 1438.8 1712.35 1436.92 1712.65 1435.07C1711.23 1435.72 1709.65 1436.12 1707.94 1436.12C1702.27 1436.12 1697.68 1432.06 1697.62 1427.02C1696.49 1427.19 1695.33 1427.3 1694.15 1427.3C1682.47 1427.3 1673 1418.86 1673 1408.45C1673 1398.05 1682.47 1389.61 1694.15 1389.61H1939.52C1955.8 1389.61 1969 1401.36 1969 1415.87C1969 1430.38 1955.8 1442.13 1939.53 1442.13Z" fill="#2FC18B"/>
<path d="M1786.53 1413.53C1781.95 1413.53 1777.64 1412.57 1773.77 1410.91C1774.1 1412.29 1774.28 1413.72 1774.28 1415.19C1774.28 1426.59 1763.91 1435.83 1751.12 1435.83C1745.88 1435.83 1741.06 1434.26 1737.18 1431.64C1729.68 1448.48 1711.25 1460.38 1689.68 1460.38C1679.86 1460.38 1670.7 1457.91 1662.91 1453.63C1660.2 1463.57 1650.18 1470.96 1638.2 1470.96C1625.33 1470.96 1614.73 1462.45 1613.01 1451.41C1610.14 1451.92 1607.17 1452.2 1604.13 1452.2C1579.29 1452.2 1559.15 1434.26 1559.15 1412.12C1559.15 1410.19 1559.35 1408.31 1559.65 1406.46C1558.23 1407.11 1556.65 1407.52 1554.94 1407.52C1549.27 1407.52 1544.68 1403.45 1544.62 1398.42C1543.49 1398.58 1542.33 1398.69 1541.15 1398.69C1529.47 1398.69 1520 1390.25 1520 1379.85C1520 1369.44 1529.47 1361 1541.15 1361H1786.52C1802.8 1361 1816 1372.76 1816 1387.26C1816 1401.77 1802.8 1413.53 1786.53 1413.53Z" fill="#2FC18B"/>
<path d="M1633.53 1442.13C1628.95 1442.13 1624.64 1441.18 1620.77 1439.52C1621.1 1440.9 1621.28 1442.33 1621.28 1443.8C1621.28 1455.19 1610.91 1464.43 1598.12 1464.43C1592.88 1464.43 1588.06 1462.86 1584.18 1460.25C1576.68 1477.08 1558.25 1488.99 1536.68 1488.99C1526.86 1488.99 1517.7 1486.52 1509.91 1482.24C1507.2 1492.18 1497.18 1499.57 1485.2 1499.57C1472.33 1499.57 1461.73 1491.06 1460.01 1480.02C1457.14 1480.53 1454.17 1480.81 1451.13 1480.81C1426.29 1480.81 1406.15 1462.86 1406.15 1440.73C1406.15 1438.8 1406.35 1436.92 1406.65 1435.07C1405.23 1435.72 1403.65 1436.12 1401.94 1436.12C1396.27 1436.12 1391.68 1432.06 1391.62 1427.02C1390.49 1427.19 1389.33 1427.3 1388.15 1427.3C1376.47 1427.3 1367 1418.86 1367 1408.45C1367 1398.05 1376.47 1389.61 1388.15 1389.61H1633.52C1649.8 1389.61 1663 1401.36 1663 1415.87C1663 1430.38 1649.8 1442.13 1633.53 1442.13Z" fill="#2FC18B"/>
<path d="M1232.47 1420.68C1237.05 1420.68 1241.36 1419.72 1245.23 1418.06C1244.9 1419.44 1244.72 1420.87 1244.72 1422.34C1244.72 1433.74 1255.09 1442.98 1267.88 1442.98C1273.12 1442.98 1277.94 1441.41 1281.82 1438.79C1289.32 1455.63 1307.75 1467.54 1329.32 1467.54C1339.14 1467.54 1348.3 1465.06 1356.09 1460.79C1358.8 1470.72 1368.82 1478.11 1380.8 1478.11C1393.67 1478.11 1404.27 1469.6 1405.99 1458.56C1408.86 1459.07 1411.83 1459.35 1414.87 1459.35C1439.71 1459.35 1459.85 1441.41 1459.85 1419.27C1459.85 1417.34 1459.65 1415.46 1459.35 1413.61C1460.77 1414.26 1462.35 1414.67 1464.06 1414.67C1469.73 1414.67 1474.32 1410.6 1474.38 1405.57C1475.51 1405.73 1476.67 1405.84 1477.85 1405.84C1489.53 1405.84 1499 1397.4 1499 1387C1499 1376.59 1489.53 1368.15 1477.85 1368.15H1232.48C1216.2 1368.15 1203 1379.91 1203 1394.42C1203 1408.92 1216.2 1420.68 1232.47 1420.68Z" fill="#2FC18B"/>
<path d="M1327.53 1442.13C1322.95 1442.13 1318.64 1441.18 1314.77 1439.52C1315.1 1440.9 1315.28 1442.33 1315.28 1443.8C1315.28 1455.19 1304.91 1464.43 1292.12 1464.43C1286.88 1464.43 1282.06 1462.86 1278.18 1460.25C1270.68 1477.08 1252.25 1488.99 1230.68 1488.99C1220.86 1488.99 1211.7 1486.52 1203.91 1482.24C1201.2 1492.18 1191.18 1499.57 1179.2 1499.57C1166.33 1499.57 1155.73 1491.06 1154.01 1480.02C1151.14 1480.53 1148.17 1480.81 1145.13 1480.81C1120.29 1480.81 1100.15 1462.86 1100.15 1440.73C1100.15 1438.8 1100.35 1436.92 1100.65 1435.07C1099.23 1435.72 1097.65 1436.12 1095.94 1436.12C1090.27 1436.12 1085.68 1432.06 1085.62 1427.02C1084.49 1427.19 1083.33 1427.3 1082.15 1427.3C1070.47 1427.3 1061 1418.86 1061 1408.45C1061 1398.05 1070.47 1389.61 1082.15 1389.61H1327.52C1343.8 1389.61 1357 1401.36 1357 1415.87C1357 1430.38 1343.8 1442.13 1327.53 1442.13Z" fill="#2FC18B"/>
<path d="M929.473 1455.54C934.048 1455.54 938.362 1454.59 942.226 1452.93C941.899 1454.31 941.721 1455.74 941.721 1457.21C941.721 1468.6 952.09 1477.84 964.879 1477.84C970.12 1477.84 974.936 1476.27 978.818 1473.66C986.321 1490.49 1004.75 1502.4 1026.32 1502.4C1036.14 1502.4 1045.3 1499.93 1053.09 1495.65C1055.8 1505.59 1065.82 1512.98 1077.8 1512.98C1090.67 1512.98 1101.27 1504.47 1102.99 1493.43C1105.86 1493.94 1108.83 1494.22 1111.87 1494.22C1136.71 1494.22 1156.85 1476.27 1156.85 1454.14C1156.85 1452.21 1156.65 1450.33 1156.35 1448.48C1157.77 1449.13 1159.35 1449.53 1161.06 1449.53C1166.73 1449.53 1171.32 1445.47 1171.38 1440.43C1172.51 1440.6 1173.67 1440.71 1174.85 1440.71C1186.53 1440.71 1196 1432.27 1196 1421.86C1196 1411.46 1186.53 1403.02 1174.85 1403.02H929.475C913.198 1403.02 900 1414.78 900 1429.28C900 1443.79 913.195 1455.54 929.473 1455.54Z" fill="#2FC18B"/>
<path d="M1057.53 1428.53C1052.95 1428.53 1048.64 1427.57 1044.77 1425.91C1045.1 1427.29 1045.28 1428.72 1045.28 1430.19C1045.28 1441.59 1034.91 1450.83 1022.12 1450.83C1016.88 1450.83 1012.06 1449.26 1008.18 1446.64C1000.68 1463.48 982.248 1475.38 960.682 1475.38C950.863 1475.38 941.695 1472.91 933.908 1468.63C931.201 1478.57 921.18 1485.96 909.196 1485.96C896.333 1485.96 885.728 1477.45 884.011 1466.41C881.14 1466.92 878.169 1467.2 875.127 1467.2C850.286 1467.2 830.149 1449.26 830.149 1427.12C830.149 1425.19 830.355 1423.31 830.649 1421.46C829.23 1422.11 827.645 1422.52 825.939 1422.52C820.272 1422.52 815.682 1418.45 815.616 1413.42C814.486 1413.58 813.331 1413.69 812.147 1413.69C800.468 1413.69 791 1405.25 791 1394.85C791 1384.44 800.468 1376 812.147 1376H1057.52C1073.8 1376 1087 1387.76 1087 1402.26C1087 1416.77 1073.8 1428.53 1057.53 1428.53Z" fill="#2FC18B"/>
<path d="M870.527 1415.31C865.952 1415.31 861.638 1414.36 857.774 1412.7C858.101 1414.08 858.279 1415.51 858.279 1416.98C858.279 1428.37 847.91 1437.61 835.121 1437.61C829.88 1437.61 825.064 1436.04 821.182 1433.43C813.679 1450.26 795.248 1462.17 773.682 1462.17C763.863 1462.17 754.695 1459.7 746.908 1455.42C744.201 1465.36 734.18 1472.75 722.196 1472.75C709.333 1472.75 698.728 1464.24 697.011 1453.2C694.14 1453.71 691.169 1453.99 688.127 1453.99C663.286 1453.99 643.149 1436.04 643.149 1413.91C643.149 1411.98 643.355 1410.1 643.649 1408.25C642.23 1408.9 640.645 1409.3 638.939 1409.3C633.272 1409.3 628.682 1405.24 628.616 1400.2C627.486 1400.37 626.331 1400.48 625.147 1400.48C613.468 1400.48 604 1392.04 604 1381.63C604 1371.23 613.468 1362.79 625.147 1362.79H870.525C886.802 1362.79 900 1374.55 900 1389.05C900 1403.56 886.805 1415.31 870.527 1415.31Z" fill="#2FC18B"/>
<path d="M715.527 1420.68C710.952 1420.68 706.638 1419.72 702.774 1418.06C703.101 1419.44 703.279 1420.87 703.279 1422.34C703.279 1433.74 692.91 1442.98 680.121 1442.98C674.88 1442.98 670.064 1441.41 666.182 1438.79C658.679 1455.63 640.248 1467.54 618.682 1467.54C608.863 1467.54 599.695 1465.06 591.908 1460.79C589.201 1470.72 579.18 1478.11 567.196 1478.11C554.333 1478.11 543.728 1469.6 542.011 1458.56C539.14 1459.07 536.169 1459.35 533.127 1459.35C508.286 1459.35 488.149 1441.41 488.149 1419.27C488.149 1417.34 488.355 1415.46 488.649 1413.61C487.23 1414.26 485.645 1414.67 483.939 1414.67C478.272 1414.67 473.682 1410.6 473.616 1405.57C472.486 1405.73 471.331 1405.84 470.147 1405.84C458.468 1405.84 449 1397.4 449 1387C449 1376.59 458.468 1368.15 470.147 1368.15H715.525C731.802 1368.15 745 1379.91 745 1394.42C745 1408.92 731.805 1420.68 715.527 1420.68Z" fill="#2FC18B"/>
<path d="M562.527 1415.31C557.952 1415.31 553.638 1414.36 549.774 1412.7C550.101 1414.08 550.279 1415.51 550.279 1416.98C550.279 1428.37 539.91 1437.61 527.121 1437.61C521.88 1437.61 517.064 1436.04 513.182 1433.43C505.679 1450.26 487.248 1462.17 465.682 1462.17C455.863 1462.17 446.695 1459.7 438.908 1455.42C436.201 1465.36 426.18 1472.75 414.196 1472.75C401.333 1472.75 390.728 1464.24 389.011 1453.2C386.14 1453.71 383.169 1453.99 380.127 1453.99C355.286 1453.99 335.149 1436.04 335.149 1413.91C335.149 1411.98 335.355 1410.1 335.649 1408.25C334.23 1408.9 332.645 1409.3 330.939 1409.3C325.272 1409.3 320.682 1405.24 320.616 1400.2C319.486 1400.37 318.331 1400.48 317.147 1400.48C305.468 1400.48 296 1392.04 296 1381.63C296 1371.23 305.468 1362.79 317.147 1362.79H562.525C578.802 1362.79 592 1374.55 592 1389.05C592 1403.56 578.805 1415.31 562.527 1415.31Z" fill="#2FC18B"/>
<path d="M412.527 1432.3C407.952 1432.3 403.638 1431.34 399.774 1429.69C400.101 1431.07 400.279 1432.5 400.279 1433.96C400.279 1445.36 389.91 1454.6 377.121 1454.6C371.88 1454.6 367.064 1453.03 363.182 1450.42C355.679 1467.25 337.248 1479.16 315.682 1479.16C305.863 1479.16 296.695 1476.68 288.908 1472.41C286.201 1482.34 276.18 1489.73 264.196 1489.73C251.333 1489.73 240.728 1481.22 239.011 1470.18C236.14 1470.7 233.169 1470.97 230.127 1470.97C205.286 1470.97 185.149 1453.03 185.149 1430.89C185.149 1428.97 185.355 1427.09 185.649 1425.23C184.23 1425.88 182.645 1426.29 180.939 1426.29C175.272 1426.29 170.682 1422.22 170.616 1417.19C169.486 1417.36 168.331 1417.46 167.147 1417.46C155.468 1417.46 146 1409.03 146 1398.62C146 1388.21 155.468 1379.77 167.147 1379.77H412.525C428.802 1379.77 442 1391.53 442 1406.04C442 1420.54 428.805 1432.3 412.527 1432.3Z" fill="#2FC18B"/>
<path d="M256.527 1442.13C251.952 1442.13 247.638 1441.18 243.774 1439.52C244.101 1440.9 244.279 1442.33 244.279 1443.8C244.279 1455.19 233.91 1464.43 221.121 1464.43C215.88 1464.43 211.064 1462.86 207.182 1460.25C199.679 1477.08 181.248 1488.99 159.682 1488.99C149.863 1488.99 140.695 1486.52 132.908 1482.24C130.201 1492.18 120.18 1499.57 108.196 1499.57C95.3332 1499.57 84.7278 1491.06 83.0115 1480.02C80.1398 1480.53 77.1692 1480.81 74.1275 1480.81C49.2858 1480.81 29.149 1462.86 29.149 1440.73C29.149 1438.8 29.3546 1436.92 29.6491 1435.07C28.2298 1435.72 26.6455 1436.12 24.9393 1436.12C19.2722 1436.12 14.6817 1432.06 14.6157 1427.02C13.4858 1427.19 12.3306 1427.3 11.1474 1427.3C-0.532037 1427.3 -10 1418.86 -10 1408.45C-10 1398.05 -0.532037 1389.61 11.1474 1389.61H256.525C272.802 1389.61 286 1401.36 286 1415.87C286 1430.38 272.805 1442.13 256.527 1442.13Z" fill="#2FC18B"/>
<path d="M103.527 1442.13C98.9519 1442.13 94.6381 1441.18 90.7737 1439.52C91.1013 1440.9 91.279 1442.33 91.279 1443.8C91.279 1455.19 80.9097 1464.43 68.1207 1464.43C62.8802 1464.43 58.0637 1462.86 54.1816 1460.25C46.6788 1477.08 28.2482 1488.99 6.68184 1488.99C-3.13651 1488.99 -12.3049 1486.52 -20.092 1482.24C-22.7986 1492.18 -32.82 1499.57 -44.8041 1499.57C-57.6668 1499.57 -68.2722 1491.06 -69.9885 1480.02C-72.8602 1480.53 -75.8308 1480.81 -78.8725 1480.81C-103.714 1480.81 -123.851 1462.86 -123.851 1440.73C-123.851 1438.8 -123.645 1436.92 -123.351 1435.07C-124.77 1435.72 -126.355 1436.12 -128.061 1436.12C-133.728 1436.12 -138.318 1432.06 -138.384 1427.02C-139.514 1427.19 -140.669 1427.3 -141.853 1427.3C-153.532 1427.3 -163 1418.86 -163 1408.45C-163 1398.05 -153.532 1389.61 -141.853 1389.61H103.525C119.802 1389.61 133 1401.36 133 1415.87C133 1430.38 119.805 1442.13 103.527 1442.13Z" fill="#2FC18B"/>
</svg>
