<svg width="1920" height="713" viewBox="0 0 1920 713" fill="none" xmlns="http://www.w3.org/2000/svg">
<path d="M1077.8 0C1090.67 0 1101.27 9.25359 1102.99 21.2598C1105.86 20.7013 1108.83 20.4004 1111.87 20.4004C1125.22 20.4004 1137.21 26.0373 1145.45 34.9863C1148.38 35.0067 1151.24 35.303 1154.01 35.8418C1155.73 23.8357 1166.33 14.583 1179.2 14.583C1191.18 14.5832 1201.2 22.6155 1203.91 33.4209C1211.7 28.7711 1220.86 26.0821 1230.68 26.082C1252.25 26.082 1270.68 39.0301 1278.18 57.3369C1282.06 54.4954 1286.88 52.7881 1292.12 52.7881C1296.45 52.7882 1300.49 53.9384 1303.96 55.9385C1311.43 51.788 1320.09 49.4141 1329.32 49.4141C1339.14 49.4141 1348.3 52.1031 1356.09 56.7529C1358.8 45.9475 1368.82 37.9152 1380.8 37.915C1393.67 37.915 1404.27 47.1677 1405.99 59.1738C1407.7 58.8416 1409.44 58.6025 1411.21 58.4619C1418.71 44.5104 1433.77 34.9834 1451.13 34.9834C1454.17 34.9834 1457.14 35.2833 1460.01 35.8418C1461.73 23.8357 1472.33 14.583 1485.2 14.583C1497.18 14.5832 1507.2 22.6155 1509.91 33.4209C1517.7 28.7711 1526.86 26.0821 1536.68 26.082C1558.25 26.082 1576.68 39.0301 1584.18 57.3369C1588.06 54.4954 1592.88 52.7881 1598.12 52.7881C1604.84 52.7882 1610.89 55.5627 1615.12 59.9922C1619.16 51.5502 1627.96 45.6924 1638.2 45.6924C1650.18 45.6926 1660.2 53.7249 1662.91 64.5303C1670.7 59.8804 1679.86 57.1914 1689.68 57.1914C1698.84 57.1914 1707.43 59.5279 1714.86 63.6172C1721.16 46.9098 1737.71 34.9834 1757.13 34.9834C1760.17 34.9834 1763.14 35.2833 1766.01 35.8418C1767.73 23.8357 1778.33 14.583 1791.2 14.583C1803.18 14.5832 1813.2 22.6155 1815.91 33.4209C1823.7 28.7711 1832.86 26.0821 1842.68 26.082C1864.25 26.082 1882.68 39.0301 1890.18 57.3369C1894.06 54.4954 1898.88 52.7881 1904.12 52.7881C1916.91 52.7883 1927.28 62.8362 1927.28 75.2285C1927.28 76.8252 1927.1 78.3801 1926.77 79.8809C1930.64 78.0799 1934.95 77.0391 1939.53 77.0391C1955.8 77.0391 1969 89.8258 1969 105.599C1969 109.652 1968.13 113.507 1966.56 117H1984V614H-55V134.159H-141.853C-153.532 134.159 -163 124.982 -163 113.665C-163 102.348 -153.532 93.1738 -141.853 93.1738C-140.67 93.1738 -139.514 93.2897 -138.385 93.4717C-138.319 87.9951 -133.728 83.5742 -128.061 83.5742C-126.354 83.5742 -124.77 84.0141 -123.351 84.7227C-123.645 82.7078 -123.851 80.6634 -123.851 78.5674C-123.851 54.496 -103.714 34.9834 -78.8721 34.9834C-75.8305 34.9834 -72.8597 35.2833 -69.9883 35.8418C-68.2719 23.8357 -57.6663 14.583 -44.8037 14.583C-32.8198 14.5832 -22.7983 22.6155 -20.0918 33.4209C-12.3047 28.7711 -3.13655 26.0821 6.68164 26.082C22.6652 26.082 36.9253 33.1953 46.292 44.3301C53.9492 38.4767 63.6175 34.9834 74.1279 34.9834C77.1695 34.9834 80.1402 35.2833 83.0117 35.8418C84.7281 23.8357 95.3337 14.583 108.196 14.583C120.18 14.5832 130.202 22.6155 132.908 33.4209C140.695 28.7711 149.863 26.0821 159.682 26.082C179.505 26.082 196.678 37.0234 205.151 53.0098C212.296 48.3787 220.886 45.6768 230.128 45.6768C233.169 45.6768 236.14 45.9777 239.012 46.5361C240.728 34.53 251.334 25.2764 264.196 25.2764C276.18 25.2766 286.202 33.3098 288.908 44.1152C296.695 39.4653 305.863 36.7754 315.682 36.7754C337.018 36.7754 355.283 49.4499 362.936 67.4473C363.819 67.0927 364.717 66.7634 365.628 66.4629C369.014 64.5738 372.932 63.4824 377.121 63.4824C379.203 63.4825 381.22 63.7499 383.139 64.249C385.135 64.3792 387.096 64.6342 389.012 65.0068C390.728 53.0008 401.334 43.748 414.196 43.748C426.18 43.7482 436.202 51.7806 438.908 62.5859C446.695 57.9361 455.863 55.2471 465.682 55.2471C480.026 55.2471 492.983 60.9766 502.26 70.2002C510.315 62.8327 521.177 58.3154 533.128 58.3154C536.169 58.3155 539.14 58.6154 542.012 59.1738C543.728 47.1677 554.334 37.915 567.196 37.915C579.18 37.9152 589.202 45.9475 591.908 56.7529C599.695 52.1031 608.863 49.4141 618.682 49.4141C636.824 49.4141 652.745 58.5781 661.811 72.3857C669.21 67.204 678.3 64.1484 688.128 64.1484C691.169 64.1485 694.14 64.4484 697.012 65.0068C698.728 53.0008 709.334 43.748 722.196 43.748C734.18 43.7482 744.202 51.7806 746.908 62.5859C754.695 57.9361 763.863 55.2471 773.682 55.2471C779.958 55.2471 785.968 56.3453 791.521 58.3516C794.373 36.9413 813.256 20.4004 836.128 20.4004C839.169 20.4004 842.14 20.7013 845.012 21.2598C846.728 9.25359 857.334 0 870.196 0C882.18 0.000193334 892.202 8.03267 894.908 18.8379C902.695 14.1881 911.864 11.4991 921.682 11.499C941.456 11.499 958.593 22.3863 967.088 38.3076C969.523 38.5335 971.846 39.1287 974 40.0312C976.154 39.1288 978.476 38.5336 980.911 38.3076C989.406 22.3861 1006.54 11.499 1026.32 11.499C1036.14 11.4991 1045.3 14.1881 1053.09 18.8379C1055.8 8.03267 1065.82 0.000193334 1077.8 0Z" fill="#2FC18B"/>
<path d="M1939.53 642.142C1934.95 642.142 1930.64 641.185 1926.77 639.529C1927.1 640.909 1927.28 642.339 1927.28 643.807C1927.28 655.202 1916.91 664.442 1904.12 664.442C1898.88 664.442 1894.06 662.872 1890.18 660.259C1882.68 677.093 1864.25 689 1842.68 689C1832.86 689 1823.7 686.527 1815.91 682.251C1813.2 692.188 1803.18 699.574 1791.2 699.574C1778.33 699.574 1767.73 691.065 1766.01 680.025C1763.14 680.539 1760.17 680.815 1757.13 680.815C1732.29 680.815 1712.15 662.872 1712.15 640.737C1712.15 638.809 1712.35 636.929 1712.65 635.076C1711.23 635.728 1709.65 636.133 1707.94 636.133C1702.27 636.133 1697.68 632.067 1697.62 627.031C1696.49 627.199 1695.33 627.305 1694.15 627.305C1682.47 627.305 1673 618.869 1673 608.462C1673 598.055 1682.47 589.616 1694.15 589.616H1939.52C1955.8 589.616 1969 601.374 1969 615.88C1969 630.384 1955.8 642.142 1939.53 642.142Z" fill="#2FC18B"/>
<path d="M1786.53 613.525C1781.95 613.525 1777.64 612.568 1773.77 610.912C1774.1 612.292 1774.28 613.722 1774.28 615.19C1774.28 626.586 1763.91 635.825 1751.12 635.825C1745.88 635.825 1741.06 634.255 1737.18 631.642C1729.68 648.477 1711.25 660.383 1689.68 660.383C1679.86 660.383 1670.7 657.911 1662.91 653.635C1660.2 663.571 1650.18 670.958 1638.2 670.958C1625.33 670.958 1614.73 662.449 1613.01 651.409C1610.14 651.922 1607.17 652.198 1604.13 652.198C1579.29 652.198 1559.15 634.255 1559.15 612.12C1559.15 610.193 1559.35 608.313 1559.65 606.46C1558.23 607.112 1556.65 607.517 1554.94 607.517C1549.27 607.517 1544.68 603.451 1544.62 598.415C1543.49 598.582 1542.33 598.689 1541.15 598.689C1529.47 598.689 1520 590.252 1520 579.846C1520 569.439 1529.47 561 1541.15 561H1786.52C1802.8 561 1816 572.758 1816 587.264C1816 601.768 1802.8 613.525 1786.53 613.525Z" fill="#2FC18B"/>
<path d="M1633.53 642.142C1628.95 642.142 1624.64 641.185 1620.77 639.529C1621.1 640.909 1621.28 642.339 1621.28 643.807C1621.28 655.202 1610.91 664.442 1598.12 664.442C1592.88 664.442 1588.06 662.872 1584.18 660.259C1576.68 677.093 1558.25 689 1536.68 689C1526.86 689 1517.7 686.527 1509.91 682.251C1507.2 692.188 1497.18 699.574 1485.2 699.574C1472.33 699.574 1461.73 691.065 1460.01 680.025C1457.14 680.539 1454.17 680.815 1451.13 680.815C1426.29 680.815 1406.15 662.872 1406.15 640.737C1406.15 638.809 1406.35 636.929 1406.65 635.076C1405.23 635.728 1403.65 636.133 1401.94 636.133C1396.27 636.133 1391.68 632.067 1391.62 627.031C1390.49 627.199 1389.33 627.305 1388.15 627.305C1376.47 627.305 1367 618.869 1367 608.462C1367 598.055 1376.47 589.616 1388.15 589.616H1633.52C1649.8 589.616 1663 601.374 1663 615.88C1663 630.384 1649.8 642.142 1633.53 642.142Z" fill="#2FC18B"/>
<path d="M1232.47 620.677C1237.05 620.677 1241.36 619.72 1245.23 618.064C1244.9 619.444 1244.72 620.874 1244.72 622.342C1244.72 633.738 1255.09 642.977 1267.88 642.977C1273.12 642.977 1277.94 641.407 1281.82 638.794C1289.32 655.628 1307.75 667.535 1329.32 667.535C1339.14 667.535 1348.3 665.062 1356.09 660.786C1358.8 670.723 1368.82 678.109 1380.8 678.109C1393.67 678.109 1404.27 669.601 1405.99 658.56C1408.86 659.074 1411.83 659.35 1414.87 659.35C1439.71 659.35 1459.85 641.407 1459.85 619.272C1459.85 617.345 1459.65 615.464 1459.35 613.612C1460.77 614.263 1462.35 614.668 1464.06 614.668C1469.73 614.668 1474.32 610.603 1474.38 605.567C1475.51 605.734 1476.67 605.84 1477.85 605.84C1489.53 605.84 1499 597.404 1499 586.997C1499 576.59 1489.53 568.152 1477.85 568.152H1232.48C1216.2 568.152 1203 579.909 1203 594.415C1203 608.919 1216.2 620.677 1232.47 620.677Z" fill="#2FC18B"/>
<path d="M1327.53 642.142C1322.95 642.142 1318.64 641.185 1314.77 639.529C1315.1 640.909 1315.28 642.339 1315.28 643.807C1315.28 655.202 1304.91 664.442 1292.12 664.442C1286.88 664.442 1282.06 662.872 1278.18 660.259C1270.68 677.093 1252.25 689 1230.68 689C1220.86 689 1211.7 686.527 1203.91 682.251C1201.2 692.188 1191.18 699.574 1179.2 699.574C1166.33 699.574 1155.73 691.065 1154.01 680.025C1151.14 680.539 1148.17 680.815 1145.13 680.815C1120.29 680.815 1100.15 662.872 1100.15 640.737C1100.15 638.809 1100.35 636.929 1100.65 635.076C1099.23 635.728 1097.65 636.133 1095.94 636.133C1090.27 636.133 1085.68 632.067 1085.62 627.031C1084.49 627.199 1083.33 627.305 1082.15 627.305C1070.47 627.305 1061 618.869 1061 608.462C1061 598.055 1070.47 589.616 1082.15 589.616H1327.52C1343.8 589.616 1357 601.374 1357 615.88C1357 630.384 1343.8 642.142 1327.53 642.142Z" fill="#2FC18B"/>
<path d="M929.473 655.552C934.048 655.552 938.362 654.595 942.226 652.939C941.899 654.319 941.721 655.749 941.721 657.217C941.721 668.613 952.09 677.852 964.879 677.852C970.12 677.852 974.936 676.282 978.818 673.669C986.321 690.503 1004.75 702.41 1026.32 702.41C1036.14 702.41 1045.3 699.937 1053.09 695.661C1055.8 705.598 1065.82 712.984 1077.8 712.984C1090.67 712.984 1101.27 704.476 1102.99 693.435C1105.86 693.949 1108.83 694.225 1111.87 694.225C1136.71 694.225 1156.85 676.282 1156.85 654.147C1156.85 652.22 1156.65 650.339 1156.35 648.487C1157.77 649.138 1159.35 649.543 1161.06 649.543C1166.73 649.543 1171.32 645.478 1171.38 640.442C1172.51 640.609 1173.67 640.715 1174.85 640.715C1186.53 640.715 1196 632.279 1196 621.872C1196 611.465 1186.53 603.027 1174.85 603.027H929.475C913.198 603.027 900 614.784 900 629.29C900 643.794 913.195 655.552 929.473 655.552Z" fill="#2FC18B"/>
<path d="M1057.53 628.525C1052.95 628.525 1048.64 627.568 1044.77 625.912C1045.1 627.292 1045.28 628.722 1045.28 630.19C1045.28 641.586 1034.91 650.825 1022.12 650.825C1016.88 650.825 1012.06 649.255 1008.18 646.642C1000.68 663.477 982.248 675.383 960.682 675.383C950.863 675.383 941.695 672.911 933.908 668.635C931.201 678.571 921.18 685.958 909.196 685.958C896.333 685.958 885.728 677.449 884.011 666.409C881.14 666.922 878.169 667.198 875.127 667.198C850.286 667.198 830.149 649.255 830.149 627.12C830.149 625.193 830.355 623.313 830.649 621.46C829.23 622.112 827.645 622.517 825.939 622.517C820.272 622.517 815.682 618.451 815.616 613.415C814.486 613.582 813.331 613.689 812.147 613.689C800.468 613.689 791 605.252 791 594.846C791 584.439 800.468 576 812.147 576H1057.52C1073.8 576 1087 587.758 1087 602.264C1087 616.768 1073.8 628.525 1057.53 628.525Z" fill="#2FC18B"/>
<path d="M870.527 615.313C865.952 615.313 861.638 614.356 857.774 612.7C858.101 614.08 858.279 615.51 858.279 616.978C858.279 628.374 847.91 637.613 835.121 637.613C829.88 637.613 825.064 636.043 821.182 633.43C813.679 650.264 795.248 662.171 773.682 662.171C763.863 662.171 754.695 659.698 746.908 655.422C744.201 665.359 734.18 672.745 722.196 672.745C709.333 672.745 698.728 664.237 697.011 653.196C694.14 653.71 691.169 653.986 688.127 653.986C663.286 653.986 643.149 636.043 643.149 613.908C643.149 611.98 643.355 610.1 643.649 608.248C642.23 608.899 640.645 609.304 638.939 609.304C633.272 609.304 628.682 605.239 628.616 600.203C627.486 600.37 626.331 600.476 625.147 600.476C613.468 600.476 604 592.04 604 581.633C604 571.226 613.468 562.788 625.147 562.788H870.525C886.802 562.788 900 574.545 900 589.051C900 603.555 886.805 615.313 870.527 615.313Z" fill="#2FC18B"/>
<path d="M715.527 620.677C710.952 620.677 706.638 619.72 702.774 618.064C703.101 619.444 703.279 620.874 703.279 622.342C703.279 633.738 692.91 642.977 680.121 642.977C674.88 642.977 670.064 641.407 666.182 638.794C658.679 655.628 640.248 667.535 618.682 667.535C608.863 667.535 599.695 665.062 591.908 660.786C589.201 670.723 579.18 678.109 567.196 678.109C554.333 678.109 543.728 669.601 542.011 658.56C539.14 659.074 536.169 659.35 533.127 659.35C508.286 659.35 488.149 641.407 488.149 619.272C488.149 617.345 488.355 615.464 488.649 613.612C487.23 614.263 485.645 614.668 483.939 614.668C478.272 614.668 473.682 610.603 473.616 605.567C472.486 605.734 471.331 605.84 470.147 605.84C458.468 605.84 449 597.404 449 586.997C449 576.59 458.468 568.152 470.147 568.152H715.525C731.802 568.152 745 579.909 745 594.415C745 608.919 731.805 620.677 715.527 620.677Z" fill="#2FC18B"/>
<path d="M562.527 615.313C557.952 615.313 553.638 614.356 549.774 612.7C550.101 614.08 550.279 615.51 550.279 616.978C550.279 628.374 539.91 637.613 527.121 637.613C521.88 637.613 517.064 636.043 513.182 633.43C505.679 650.264 487.248 662.171 465.682 662.171C455.863 662.171 446.695 659.698 438.908 655.422C436.201 665.359 426.18 672.745 414.196 672.745C401.333 672.745 390.728 664.237 389.011 653.196C386.14 653.71 383.169 653.986 380.127 653.986C355.286 653.986 335.149 636.043 335.149 613.908C335.149 611.98 335.355 610.1 335.649 608.248C334.23 608.899 332.645 609.304 330.939 609.304C325.272 609.304 320.682 605.239 320.616 600.203C319.486 600.37 318.331 600.476 317.147 600.476C305.468 600.476 296 592.04 296 581.633C296 571.226 305.468 562.788 317.147 562.788H562.525C578.802 562.788 592 574.545 592 589.051C592 603.555 578.805 615.313 562.527 615.313Z" fill="#2FC18B"/>
<path d="M412.527 632.308C407.952 632.308 403.638 631.351 399.774 629.695C400.101 631.075 400.279 632.505 400.279 633.973C400.279 645.368 389.91 654.608 377.121 654.608C371.88 654.608 367.064 653.038 363.182 650.425C355.679 667.259 337.248 679.166 315.682 679.166C305.863 679.166 296.695 676.693 288.908 672.417C286.201 682.354 276.18 689.74 264.196 689.74C251.333 689.74 240.728 681.231 239.011 670.191C236.14 670.705 233.169 670.981 230.127 670.981C205.286 670.981 185.149 653.038 185.149 630.903C185.149 628.975 185.355 627.095 185.649 625.242C184.23 625.894 182.645 626.299 180.939 626.299C175.272 626.299 170.682 622.233 170.616 617.197C169.486 617.365 168.331 617.471 167.147 617.471C155.468 617.471 146 609.035 146 598.628C146 588.221 155.468 579.782 167.147 579.782H412.525C428.802 579.782 442 591.54 442 606.046C442 620.55 428.805 632.308 412.527 632.308Z" fill="#2FC18B"/>
<path d="M256.527 642.142C251.952 642.142 247.638 641.185 243.774 639.529C244.101 640.909 244.279 642.339 244.279 643.807C244.279 655.202 233.91 664.442 221.121 664.442C215.88 664.442 211.064 662.872 207.182 660.259C199.679 677.093 181.248 689 159.682 689C149.863 689 140.695 686.527 132.908 682.251C130.201 692.188 120.18 699.574 108.196 699.574C95.3332 699.574 84.7278 691.065 83.0115 680.025C80.1398 680.539 77.1692 680.815 74.1275 680.815C49.2858 680.815 29.149 662.872 29.149 640.737C29.149 638.809 29.3546 636.929 29.6491 635.076C28.2298 635.728 26.6455 636.133 24.9393 636.133C19.2722 636.133 14.6817 632.067 14.6157 627.031C13.4858 627.199 12.3306 627.305 11.1474 627.305C-0.532037 627.305 -10 618.869 -10 608.462C-10 598.055 -0.532037 589.616 11.1474 589.616H256.525C272.802 589.616 286 601.374 286 615.88C286 630.384 272.805 642.142 256.527 642.142Z" fill="#2FC18B"/>
<path d="M103.527 642.142C98.9519 642.142 94.6381 641.185 90.7737 639.529C91.1013 640.909 91.279 642.339 91.279 643.807C91.279 655.202 80.9097 664.442 68.1207 664.442C62.8802 664.442 58.0637 662.872 54.1816 660.259C46.6788 677.093 28.2482 689 6.68184 689C-3.13651 689 -12.3049 686.527 -20.092 682.251C-22.7986 692.188 -32.82 699.574 -44.8041 699.574C-57.6668 699.574 -68.2722 691.065 -69.9885 680.025C-72.8602 680.539 -75.8308 680.815 -78.8725 680.815C-103.714 680.815 -123.851 662.872 -123.851 640.737C-123.851 638.809 -123.645 636.929 -123.351 635.076C-124.77 635.728 -126.355 636.133 -128.061 636.133C-133.728 636.133 -138.318 632.067 -138.384 627.031C-139.514 627.199 -140.669 627.305 -141.853 627.305C-153.532 627.305 -163 618.869 -163 608.462C-163 598.055 -153.532 589.616 -141.853 589.616H103.525C119.802 589.616 133 601.374 133 615.88C133 630.384 119.805 642.142 103.527 642.142Z" fill="#2FC18B"/>
</svg>
