<svg width="74" height="74" viewBox="0 0 74 74" fill="none" xmlns="http://www.w3.org/2000/svg">
<circle cx="37" cy="37" r="37" fill="#2FC18B"/>
<path fill-rule="evenodd" clip-rule="evenodd" d="M19.4444 23.6667V21.4444C19.4444 18.9889 21.4333 17 23.8889 17H50.5556C53.0111 17 55 18.9889 55 21.4444V23.6667C55 24.8933 54.0044 25.8889 52.7778 25.8889C51.5511 25.8889 50.5556 24.8933 50.5556 23.6667C50.5556 22.44 49.56 21.4444 48.3333 21.4444H26.1111C24.8844 21.4444 23.8889 22.44 23.8889 23.6667C23.8889 24.8933 22.8933 25.8889 21.6667 25.8889C20.44 25.8889 19.4444 24.8933 19.4444 23.6667ZM41.6667 43.6667C41.6667 46.1222 39.6778 48.1111 37.2222 48.1111C34.7667 48.1111 32.7778 46.1222 32.7778 43.6667C32.7778 41.2111 34.7667 39.2222 37.2222 39.2222C39.6778 39.2222 41.6667 41.2111 41.6667 43.6667ZM55 38.46L51.3178 34.7778C54.9378 34.7778 55 35.6311 55 38.46ZM51.3178 52.5556L55 48.8734C55 52.4889 54.1556 52.5556 51.3178 52.5556ZM29.4111 52.5556L20.5222 43.6667L29.4111 34.7778H45.0333L53.9222 43.6667L45.0333 52.5556H29.4111ZM19.4444 48.8734L23.1267 52.5556C19.5111 52.5556 19.4444 51.7112 19.4444 48.8734ZM23.1267 34.7778L19.4444 38.46C19.4444 34.84 20.2978 34.7778 23.1267 34.7778ZM55 30.3333H19.4444C16.9889 30.3333 15 32.3222 15 34.7778V52.5556C15 55.0111 16.9889 57 19.4444 57H55C57.4556 57 59.4444 55.0111 59.4444 52.5556V34.7778C59.4444 32.3222 57.4556 30.3333 55 30.3333Z" fill="white"/>
</svg>
