<svg width="74" height="74" viewBox="0 0 74 74" fill="none" xmlns="http://www.w3.org/2000/svg">
<circle cx="37" cy="37" r="37" fill="#2FC18B"/>
<path d="M15 47.7156H49.4905C50.7257 47.7156 51.9107 48.2049 52.786 49.0766C53.6613 49.9482 54.1557 51.1311 54.1608 52.3664C54.1608 53.6051 53.6688 54.793 52.7929 55.6689C51.9171 56.5447 50.7291 57.0368 49.4905 57.0368H15" stroke="white" stroke-width="3" stroke-miterlimit="10"/>
<path d="M18.7109 47.7156C19.9362 48.9568 20.6361 50.6225 20.6651 52.3664C20.6351 54.1159 19.9357 55.7873 18.7109 57.0368" stroke="white" stroke-width="3" stroke-miterlimit="10"/>
<path d="M59.7468 47.7156H25.2563C24.0177 47.7156 22.8297 47.2235 21.9539 46.3477C21.078 45.4718 20.5859 44.2839 20.5859 43.0452C20.6115 41.8236 21.1148 40.6606 21.9879 39.8057C22.861 38.9509 24.0344 38.4723 25.2563 38.4725H59.7468" stroke="white" stroke-width="3" stroke-miterlimit="10"/>
<path d="M56.0363 47.7156C54.8346 46.4577 54.1641 44.7849 54.1641 43.0453C54.1641 41.3056 54.8346 39.6328 56.0363 38.3749" stroke="white" stroke-width="3" stroke-miterlimit="10"/>
<path d="M46.6971 27.5099C46.6971 32.9423 42.9647 41.306 37.3759 37.2805C31.7871 41.1888 28.0547 32.8642 28.0547 27.5099C28.0547 22.1555 33.6435 19.6933 37.3759 23.6016C41.1083 19.6152 46.6971 22.0578 46.6971 27.5099Z" stroke="white" stroke-width="3" stroke-miterlimit="10"/>
<path d="M33.6406 16C35.5948 16 37.373 17.9541 37.373 21.5888" stroke="white" stroke-width="3" stroke-miterlimit="10"/>
</svg>
